<svg height="512pt" viewBox="-61 0 512 512" width="512pt" xmlns="http://www.w3.org/2000/svg"><path d="m366.894531 512h-344.402343c-12.421876 0-22.492188-10.070312-22.492188-22.492188v-467.015624c0-12.421876 10.070312-22.492188 22.492188-22.492188h272.816406l94.082031 89.453125v400.054687c-.003906 12.421876-10.074219 22.492188-22.496094 22.492188zm0 0" fill="#f4f4f4"/><path d="m295.308594 0h-40.449219l94.078125 89.453125v400.054687c0 12.421876-10.070312 22.492188-22.492188 22.492188h40.449219c12.421875 0 22.492188-10.070312 22.492188-22.492188v-400.054687zm0 0" fill="#e8e8e8"/><path d="m348.9375 50.992188-53.628906-50.992188h-272.816406c-12.421876 0-22.492188 10.070312-22.492188 22.492188v28.5zm0 0" fill="#8ed4b5"/><path d="m265.777344 50.992188h83.160156l-53.628906-50.992188h-29.53125zm0 0" fill="#74ad94"/><path d="m295.308594 0v66.960938c0 12.421874 10.070312 22.492187 22.492187 22.492187h71.585938zm0 0" fill="#dedcdd"/><path d="m0 369.527344v119.980468c0 12.421876 10.070312 22.492188 22.492188 22.492188h344.402343c12.421875 0 22.492188-10.070312 22.492188-22.492188v-119.980468zm0 0" fill="#8ed4b5"/><path d="m348.9375 489.507812c0 12.421876-10.070312 22.492188-22.492188 22.492188h40.449219c.390625 0 .777344-.011719 1.160157-.027344 1.53125-.078125 3.023437-.3125 4.460937-.679687.71875-.1875 1.425781-.40625 2.113281-.65625.6875-.253907 1.363282-.539063 2.019532-.855469 2.292968-1.105469 4.371093-2.589844 6.152343-4.371094.507813-.507812.992188-1.039062 1.453125-1.59375.226563-.28125.449219-.5625.667969-.851562 1.292969-1.730469 2.34375-3.65625 3.101563-5.722656.253906-.691407.472656-1.394532.65625-2.113282.464843-1.796875.710937-3.679687.710937-5.621094v-119.980468h-40.449219v119.980468zm0 0" fill="#74ad94"/><g fill="#495663"><path d="m105.179688 469.457031c2.207031 1.957031 5.578124 1.742188 7.539062-.464843l17.960938-20.179688 17.957031 20.179688c1.960937 2.207031 5.332031 2.421874 7.539062.464843 2.210938-1.953125 2.425781-5.335937.464844-7.542969l-18.8125-21.136718 18.8125-21.136719c1.960937-2.207031 1.746094-5.589844-.464844-7.542969-2.207031-1.953125-5.578125-1.738281-7.539062.464844l-17.957031 20.179688-17.960938-20.179688c-1.960938-2.203125-5.328125-2.417969-7.539062-.464844-2.210938 1.957032-2.425782 5.335938-.460938 7.542969l18.808594 21.136719-18.808594 21.136718c-1.960938 2.207032-1.75 5.589844.460938 7.542969zm0 0"/><path d="m221.914062 470.539062c2.949219 0 5.34375-2.390624 5.34375-5.34375v-48.863281c0-2.949219-2.394531-5.34375-5.34375-5.34375-4.183593 0-3.519531 2.019531-24.460937 26.734375-20.167969-23.808594-20.230469-26.734375-24.460937-26.734375-2.953126 0-5.34375 2.394531-5.34375 5.34375v48.863281c0 2.953126 2.390624 5.34375 5.34375 5.34375 2.949218 0 5.339843-2.390624 5.339843-5.34375v-34.46875l15.074219 18.351563c2.0625 2.511719 6.011719 2.53125 8.089844 0l15.074218-18.351563v34.46875c.003907 2.953126 2.394532 5.34375 5.34375 5.34375zm0 0"/><path d="m244.882812 410.988281c-2.949218 0-5.34375 2.394531-5.34375 5.34375v48.863281c0 2.953126 2.394532 5.34375 5.34375 5.34375h35.949219c2.828125 0 5.121094-2.292968 5.121094-5.125 0-2.828124-2.292969-5.121093-5.121094-5.121093h-30.609375v-43.960938c0-2.949219-2.390625-5.34375-5.339844-5.34375zm0 0"/></g></svg>