<?xml version="1.0" encoding="iso-8859-1"?>
<!-- Generator: Adobe Illustrator 19.0.0, SVG Export Plug-In . SVG Version: 6.00 Build 0)  -->
<svg version="1.1" id="Layer_1" xmlns="http://www.w3.org/2000/svg" xmlns:xlink="http://www.w3.org/1999/xlink" x="0px" y="0px"
	 viewBox="0 0 512 512" style="enable-background:new 0 0 512 512;" xml:space="preserve">
<path style="fill:#ECEDEF;" d="M100.641,0c-14.139,0-25.6,11.461-25.6,25.6v460.8c0,14.139,11.461,25.6,25.6,25.6h375.467
	c14.139,0,25.6-11.461,25.6-25.6V85.333L416.375,0H100.641z"/>
<path style="fill:#D9DCDF;" d="M441.975,85.333h59.733L416.375,0v59.733C416.375,73.872,427.836,85.333,441.975,85.333z"/>
<path style="fill:#C6CACF;" d="M399.308,42.667H75.041v153.6h324.267c4.713,0,8.533-3.821,8.533-8.533V51.2
	C407.841,46.487,404.02,42.667,399.308,42.667z"/>
<path style="fill:#3C9FE8;" d="M382.241,179.2H18.843c-7.602,0-11.41-9.191-6.034-14.567L75.041,102.4L12.809,40.167
	C7.433,34.791,11.241,25.6,18.843,25.6h363.398c4.713,0,8.533,3.821,8.533,8.533v136.533
	C390.775,175.379,386.954,179.2,382.241,179.2z"/>
<g>
	<path style="fill:#FFFFFF;" d="M160.375,76.8c-4.713,0-8.533,3.821-8.533,8.533V102.4h-17.067V85.333
		c0-4.713-3.821-8.533-8.533-8.533c-4.713,0-8.533,3.821-8.533,8.533v51.2c0,4.713,3.821,8.533,8.533,8.533
		c4.713,0,8.533-3.821,8.533-8.533v-17.067h17.067v17.067c0,4.713,3.821,8.533,8.533,8.533c4.713,0,8.533-3.821,8.533-8.533v-51.2
		C168.908,80.621,165.088,76.8,160.375,76.8z"/>
	<path style="fill:#FFFFFF;" d="M211.575,76.8h-34.133c-4.713,0-8.533,3.821-8.533,8.533s3.821,8.533,8.533,8.533h8.533v42.667
		c0,4.713,3.821,8.533,8.533,8.533c4.713,0,8.533-3.821,8.533-8.533V93.867h8.533c4.713,0,8.533-3.821,8.533-8.533
		S216.288,76.8,211.575,76.8z"/>
	<path style="fill:#FFFFFF;" d="M282.119,77.11c-3.695-1.026-7.621,0.544-9.595,3.833l-18.283,30.471l-18.283-30.471
		c-1.973-3.289-5.902-4.858-9.595-3.833c-3.697,1.023-6.256,4.388-6.256,8.223v51.2c0,4.713,3.821,8.533,8.533,8.533
		c4.713,0,8.533-3.821,8.533-8.533v-20.393l9.749,16.25c3.255,5.424,11.379,5.424,14.635,0l9.749-16.25v20.393
		c0,4.713,3.821,8.533,8.533,8.533c4.713,0,8.533-3.821,8.533-8.533v-51.2C288.375,81.498,285.816,78.133,282.119,77.11z"/>
	<path style="fill:#FFFFFF;" d="M331.041,128h-17.067V85.333c0-4.713-3.821-8.533-8.533-8.533c-4.713,0-8.533,3.821-8.533,8.533
		v51.2c0,4.713,3.821,8.533,8.533,8.533h25.6c4.713,0,8.533-3.821,8.533-8.533S335.755,128,331.041,128z"/>
</g>
<path style="fill:#D9DCDF;" d="M407.841,469.333H168.908c-4.713,0-8.533-3.821-8.533-8.533V230.4c0-4.713,3.821-8.533,8.533-8.533
	h238.933c4.713,0,8.533,3.821,8.533,8.533v230.4C416.375,465.513,412.554,469.333,407.841,469.333z"/>
<path style="fill:#FFC44F;" d="M416.375,230.4c0-4.713-3.821-8.533-8.533-8.533H168.908c-4.713,0-8.533,3.821-8.533,8.533v43.2h256
	V230.4z"/>
<path style="fill:#C6CACF;" d="M177.441,460.8V230.4c0-4.713,3.821-8.533,8.533-8.533h-17.067c-4.713,0-8.533,3.821-8.533,8.533
	v230.4c0,4.713,3.821,8.533,8.533,8.533h17.067C181.262,469.333,177.441,465.513,177.441,460.8z"/>
<path style="fill:#F79F4D;" d="M185.975,221.867h-17.067c-4.713,0-8.533,3.821-8.533,8.533v43.2h17.067v-43.2
	C177.441,225.687,181.262,221.867,185.975,221.867z"/>
<g>
	<path style="fill:#BF722A;" d="M390.775,255.467h-8.533c-4.418,0-8-3.582-8-8c0-4.418,3.582-8,8-8h8.533c4.418,0,8,3.582,8,8
		C398.775,251.885,395.193,255.467,390.775,255.467z"/>
	<path style="fill:#BF722A;" d="M356.641,255.467h-8.533c-4.418,0-8-3.582-8-8c0-4.418,3.582-8,8-8h8.533c4.418,0,8,3.582,8,8
		C364.641,251.885,361.059,255.467,356.641,255.467z"/>
	<path style="fill:#BF722A;" d="M322.508,255.467h-8.533c-4.418,0-8-3.582-8-8c0-4.418,3.582-8,8-8h8.533c4.418,0,8,3.582,8,8
		C330.508,251.885,326.926,255.467,322.508,255.467z"/>
</g>
<g>
	<path style="fill:#7B848F;" d="M228.641,409.067c-2.047,0-4.095-0.781-5.657-2.343l-34.133-34.133
		c-3.124-3.124-3.124-8.19,0-11.313l34.133-34.133c3.052-3.052,8.261-3.052,11.313,0s3.052,8.261,0,11.313l-28.476,28.477
		l28.477,28.477C239.227,400.337,235.637,409.067,228.641,409.067z"/>
	<path style="fill:#7B848F;" d="M348.108,409.067c-6.995,0-10.586-8.729-5.657-13.657l28.477-28.477l-28.477-28.477
		c-3.083-3.082-3.083-8.232,0-11.313c3.082-3.082,8.231-3.082,11.313,0l34.133,34.133c3.124,3.124,3.124,8.19,0,11.313
		l-34.133,34.133C352.203,408.286,350.156,409.067,348.108,409.067z"/>
	<path style="fill:#7B848F;" d="M262.767,417.601c-6.123,0-9.985-6.896-6.852-12.117l51.2-85.333
		c2.273-3.788,7.185-5.018,10.976-2.743c3.789,2.273,5.018,7.187,2.743,10.976l-51.2,85.333
		C268.135,416.217,265.485,417.601,262.767,417.601z"/>
</g>
<g>
</g>
<g>
</g>
<g>
</g>
<g>
</g>
<g>
</g>
<g>
</g>
<g>
</g>
<g>
</g>
<g>
</g>
<g>
</g>
<g>
</g>
<g>
</g>
<g>
</g>
<g>
</g>
<g>
</g>
</svg>
