<?xml version="1.0" encoding="iso-8859-1"?>
<!-- Generator: Adobe Illustrator 19.0.0, SVG Export Plug-In . SVG Version: 6.00 Build 0)  -->
<svg version="1.1" id="Layer_1" xmlns="http://www.w3.org/2000/svg" xmlns:xlink="http://www.w3.org/1999/xlink" x="0px" y="0px"
	 viewBox="0 0 512 512" style="enable-background:new 0 0 512 512;" xml:space="preserve">
<path style="fill:#D9DCDF;" d="M469.333,179.2H42.667V59.733c0-4.713,3.821-8.533,8.533-8.533h409.6
	c4.713,0,8.533,3.821,8.533,8.533V179.2z"/>
<rect x="42.667" y="119.467" style="fill:#C6CACF;" width="426.667" height="51.2"/>
<path style="fill:#AAB0B7;" d="M145.067,136.533V102.4c0-9.426-7.641-17.067-17.067-17.067H17.067C7.641,85.333,0,92.974,0,102.4
	v341.333c0,9.426,7.641,17.067,17.067,17.067h477.867c9.426,0,17.067-7.641,17.067-17.067V153.6c0-9.426-7.641-17.067-17.067-17.067
	H145.067z"/>
<path style="fill:#979EA7;" d="M34.133,435.2c-4.713,0-8.533-3.821-8.533-8.533V85.333h-8.533C7.641,85.333,0,92.975,0,102.4
	v341.333c0,9.425,7.641,17.067,17.067,17.067h477.867c9.426,0,17.067-7.642,17.067-17.067V435.2H34.133z"/>
<path style="fill:#FFC44F;" d="M366.933,221.867H281.6v-25.6c0-9.426,7.641-17.067,17.067-17.067h51.2
	c9.426,0,17.067,7.641,17.067,17.067V221.867z"/>
<path style="fill:#F79F4D;" d="M315.733,179.2h-17.067c-9.426,0-17.067,7.642-17.067,17.067v25.6h17.067v-25.6
	C298.667,186.842,306.307,179.2,315.733,179.2z"/>
<path style="fill:#D9DCDF;" d="M384,409.6H128c-9.426,0-17.067-7.641-17.067-17.067V230.4c0-9.426,7.641-17.067,17.067-17.067h256
	c9.426,0,17.067,7.641,17.067,17.067v162.133C401.067,401.96,393.426,409.6,384,409.6z"/>
<path style="fill:#8E959F;" d="M401.067,230.4c0-9.425-7.641-17.067-17.067-17.067H128c-9.426,0-17.067,7.642-17.067,17.067v34.133
	h290.133V230.4z"/>
<path style="fill:#C6CACF;" d="M128,392.533V230.4c0-9.425,7.641-17.067,17.067-17.067H128c-9.426,0-17.067,7.642-17.067,17.067
	v162.133c0,9.425,7.641,17.067,17.067,17.067h17.067C135.641,409.6,128,401.958,128,392.533z"/>
<path style="fill:#7B848F;" d="M145.067,213.333H128c-9.426,0-17.067,7.642-17.067,17.067v34.133H128V230.4
	C128,220.975,135.641,213.333,145.067,213.333z"/>
<path style="fill:#B3B9BF;" d="M256,392.533c42.416,0,76.8-34.384,76.8-76.8c0-19.674-7.406-37.612-19.571-51.2H198.771
	c-12.165,13.588-19.571,31.526-19.571,51.2C179.2,358.149,213.584,392.533,256,392.533z"/>
<path style="fill:#7B848F;" d="M256,238.933c-22.741,0-43.166,9.892-57.229,25.6h114.458
	C299.166,248.826,278.741,238.933,256,238.933z"/>
<path style="fill:#55606E;" d="M196.267,384c-2.183,0-4.368-0.833-6.034-2.499c-3.333-3.333-3.333-8.735,0-12.068l17.067-17.067
	c3.332-3.331,8.735-3.331,12.067,0c3.333,3.333,3.333,8.735,0,12.068L202.3,381.501C200.635,383.167,198.45,384,196.267,384z"/>
<circle style="fill:#FFC44F;" cx="256" cy="315.733" r="68.267"/>
<circle style="fill:#427FC9;" cx="256" cy="315.733" r="51.2"/>
<circle style="fill:#3C9FE8;" cx="256" cy="315.733" r="42.667"/>
<circle style="fill:#97CCE8;" cx="264.533" cy="307.2" r="17.067"/>
<path style="fill:#68727E;" d="M170.667,213.333H153.6c-4.713,0-8.533-3.821-8.533-8.533c0-4.713,3.821-8.533,8.533-8.533h17.067
	c4.713,0,8.533,3.821,8.533,8.533C179.2,209.513,175.379,213.333,170.667,213.333z"/>
<g>
</g>
<g>
</g>
<g>
</g>
<g>
</g>
<g>
</g>
<g>
</g>
<g>
</g>
<g>
</g>
<g>
</g>
<g>
</g>
<g>
</g>
<g>
</g>
<g>
</g>
<g>
</g>
<g>
</g>
</svg>
