<?xml version="1.0" encoding="iso-8859-1"?>
<!-- Generator: Adobe Illustrator 19.0.0, SVG Export Plug-In . SVG Version: 6.00 Build 0)  -->
<svg version="1.1" id="Layer_1" xmlns="http://www.w3.org/2000/svg" xmlns:xlink="http://www.w3.org/1999/xlink" x="0px" y="0px"
	 viewBox="0 0 512 512" style="enable-background:new 0 0 512 512;" xml:space="preserve">
<path style="fill:#D9DCDF;" d="M469.333,179.2H42.667V59.733c0-4.713,3.821-8.533,8.533-8.533h409.6
	c4.713,0,8.533,3.821,8.533,8.533V179.2z"/>
<rect x="42.667" y="119.467" style="fill:#C6CACF;" width="426.667" height="51.2"/>
<path style="fill:#AAB0B7;" d="M145.067,136.533V102.4c0-9.426-7.641-17.067-17.067-17.067H17.067C7.641,85.333,0,92.974,0,102.4
	v341.333c0,9.426,7.641,17.067,17.067,17.067h477.867c9.426,0,17.067-7.641,17.067-17.067V153.6c0-9.426-7.641-17.067-17.067-17.067
	H145.067z"/>
<path style="fill:#979EA7;" d="M34.133,435.2c-4.713,0-8.533-3.821-8.533-8.533V85.333h-8.533C7.641,85.333,0,92.975,0,102.4
	v341.333c0,9.425,7.641,17.067,17.067,17.067h477.867c9.426,0,17.067-7.642,17.067-17.067V435.2H34.133z"/>
<path style="fill:#C4DF64;" d="M110.933,349.867c0,28.233,22.851,51.124,51.067,51.197V298.67
	C133.785,298.742,110.933,321.634,110.933,349.867z"/>
<path style="fill:#D8ED8C;" d="M128,349.867c0,18.806,15.211,34.058,34,34.13v-68.26C143.211,315.809,128,331.06,128,349.867z"/>
<path style="fill:#FF8C78;" d="M179.2,409.6h-34.133c-4.713,0-8.533-3.821-8.533-8.533v-102.4c0-4.713,3.821-8.533,8.533-8.533
	H179.2c4.713,0,8.533,3.821,8.533,8.533v102.4C187.733,405.779,183.913,409.6,179.2,409.6z"/>
<path style="fill:#DB6B5E;" d="M145.067,290.133c-4.713,0-8.533,3.821-8.533,8.533v102.4c0,4.713,3.821,8.533,8.533,8.533h8.533
	V290.133H145.067z"/>
<path style="fill:#C4DF64;" d="M401.067,349.867c0,28.233-22.851,51.124-51.067,51.197V298.67
	C378.215,298.742,401.067,321.634,401.067,349.867z"/>
<path style="fill:#D8ED8C;" d="M384,349.867c0,18.806-15.211,34.058-34,34.13v-68.26C368.789,315.809,384,331.06,384,349.867z"/>
<path style="fill:#FF8C78;" d="M332.8,409.6h34.133c4.713,0,8.533-3.821,8.533-8.533v-102.4c0-4.713-3.821-8.533-8.533-8.533H332.8
	c-4.713,0-8.533,3.821-8.533,8.533v102.4C324.267,405.779,328.087,409.6,332.8,409.6z"/>
<g>
	<path style="fill:#DB6B5E;" d="M366.933,290.133h-8.355V409.6h8.355c4.713,0,8.533-3.821,8.533-8.533v-102.4
		C375.467,293.954,371.646,290.133,366.933,290.133z"/>
	<path style="fill:#DB6B5E;" d="M358.4,290.133h-17.067c0-47.053-38.281-85.333-85.333-85.333s-85.333,38.281-85.333,85.333H153.6
		c0-56.464,45.936-102.4,102.4-102.4S358.4,233.669,358.4,290.133z"/>
</g>
<g>
</g>
<g>
</g>
<g>
</g>
<g>
</g>
<g>
</g>
<g>
</g>
<g>
</g>
<g>
</g>
<g>
</g>
<g>
</g>
<g>
</g>
<g>
</g>
<g>
</g>
<g>
</g>
<g>
</g>
</svg>
