<?xml version="1.0" encoding="iso-8859-1"?>
<!-- Generator: Adobe Illustrator 19.0.0, SVG Export Plug-In . SVG Version: 6.00 Build 0)  -->
<svg version="1.1" id="Layer_1" xmlns="http://www.w3.org/2000/svg" xmlns:xlink="http://www.w3.org/1999/xlink" x="0px" y="0px"
	 viewBox="0 0 512 512" style="enable-background:new 0 0 512 512;" xml:space="preserve">
<path style="fill:#ECEDEF;" d="M100.641,0c-14.139,0-25.6,11.461-25.6,25.6v460.8c0,14.139,11.461,25.6,25.6,25.6h375.467
	c14.139,0,25.6-11.461,25.6-25.6V85.333L416.375,0H100.641z"/>
<path style="fill:#D9DCDF;" d="M441.975,85.333h59.733L416.375,0v59.733C416.375,73.872,427.836,85.333,441.975,85.333z"/>
<path style="fill:#C6CACF;" d="M399.308,42.667H75.041v153.6h324.267c4.713,0,8.533-3.821,8.533-8.533V51.2
	C407.841,46.487,404.02,42.667,399.308,42.667z"/>
<path style="fill:#8AC451;" d="M382.241,179.2H18.843c-7.602,0-11.41-9.191-6.034-14.567L75.041,102.4L12.809,40.167
	C7.433,34.791,11.241,25.6,18.843,25.6h363.398c4.713,0,8.533,3.821,8.533,8.533v136.533
	C390.775,175.379,386.954,179.2,382.241,179.2z"/>
<path style="fill:#97CCE8;" d="M407.841,384h-17.067V256h-128v-17.067c0-4.713-3.821-8.533-8.533-8.533
	c-4.713,0-8.533,3.821-8.533,8.533v23.703l-68.267,53.097v124.465l-23.101,23.101c-3.081,3.082-3.311,8.145-0.524,11.494
	c3.167,3.805,9.092,4.073,12.592,0.575l23.102-23.102h124.465l65.828-51.2h28.038c4.713,0,8.533-3.821,8.533-8.533
	S412.554,384,407.841,384z"/>
<path style="fill:#427FC9;" d="M407.841,384h-17.067V256l-76.8,59.733v136.533l65.828-51.2h28.038c4.713,0,8.533-3.821,8.533-8.533
	S412.554,384,407.841,384z"/>
<path style="fill:#3C9FE8;" d="M313.975,315.733H177.441v124.465l-23.101,23.101c-3.081,3.082-3.311,8.145-0.524,11.494
	c3.167,3.805,9.092,4.073,12.592,0.575l23.102-23.102h124.465V315.733H313.975z"/>
<path style="fill:#97CCE8;" d="M262.775,256v-17.067c0-4.713-3.821-8.533-8.533-8.533s-8.533,3.821-8.533,8.533v23.703
	l-68.267,53.097h136.533l76.8-59.733H262.775z"/>
<g>
	<path style="fill:#FFFFFF;" d="M194.508,102.4V85.333c0-4.713-3.821-8.533-8.533-8.533h-25.6c-4.713,0-8.533,3.821-8.533,8.533
		s3.821,8.533,8.533,8.533h17.067v8.533h-8.533c-4.713,0-8.533,3.821-8.533,8.533s3.821,8.533,8.533,8.533h8.533V128h-17.067
		c-4.713,0-8.533,3.821-8.533,8.533s3.821,8.533,8.533,8.533h25.6c4.713,0,8.533-3.821,8.533-8.533v-17.067
		c4.713,0,8.533-3.821,8.533-8.533S199.22,102.4,194.508,102.4z"/>
	<path style="fill:#FFFFFF;" d="M237.175,76.8h-17.067c-4.713,0-8.533,3.821-8.533,8.533v51.2c0,4.713,3.821,8.533,8.533,8.533
		h34.133c4.713,0,8.533-3.821,8.533-8.533V102.4C262.775,88.285,251.291,76.8,237.175,76.8z M245.708,128h-17.067V93.867h8.533
		c4.705,0,8.533,3.828,8.533,8.533V128z"/>
	<path style="fill:#FFFFFF;" d="M305.441,102.4h-17.067v-8.533h17.067c4.713,0,8.533-3.821,8.533-8.533s-3.821-8.533-8.533-8.533
		h-25.6c-4.713,0-8.533,3.821-8.533,8.533v25.6c0,4.713,3.821,8.533,8.533,8.533h17.067V128h-17.067
		c-4.713,0-8.533,3.821-8.533,8.533s3.821,8.533,8.533,8.533h25.6c4.713,0,8.533-3.821,8.533-8.533v-25.6
		C313.975,106.221,310.154,102.4,305.441,102.4z"/>
</g>
<g>
</g>
<g>
</g>
<g>
</g>
<g>
</g>
<g>
</g>
<g>
</g>
<g>
</g>
<g>
</g>
<g>
</g>
<g>
</g>
<g>
</g>
<g>
</g>
<g>
</g>
<g>
</g>
<g>
</g>
</svg>
