<?xml version="1.0" encoding="iso-8859-1"?>
<!-- Generator: Adobe Illustrator 19.0.0, SVG Export Plug-In . SVG Version: 6.00 Build 0)  -->
<svg version="1.1" id="Layer_1" xmlns="http://www.w3.org/2000/svg" xmlns:xlink="http://www.w3.org/1999/xlink" x="0px" y="0px"
	 viewBox="0 0 512 512" style="enable-background:new 0 0 512 512;" xml:space="preserve">
<path style="fill:#ECEDEF;" d="M100.641,0c-14.139,0-25.6,11.461-25.6,25.6v460.8c0,14.139,11.461,25.6,25.6,25.6h375.467
	c14.139,0,25.6-11.461,25.6-25.6V85.333L416.375,0H100.641z"/>
<path style="fill:#D9DCDF;" d="M441.975,85.333h59.733L416.375,0v59.733C416.375,73.872,427.836,85.333,441.975,85.333z"/>
<path style="fill:#C6CACF;" d="M399.308,42.667H75.041v153.6h324.267c4.713,0,8.533-3.821,8.533-8.533V51.2
	C407.841,46.487,404.02,42.667,399.308,42.667z"/>
<path style="fill:#FF8C78;" d="M382.241,179.2H18.843c-7.602,0-11.41-9.191-6.034-14.567L75.041,102.4L12.809,40.167
	C7.433,34.791,11.241,25.6,18.843,25.6h363.398c4.713,0,8.533,3.821,8.533,8.533v136.533
	C390.775,175.379,386.954,179.2,382.241,179.2z"/>
<g>
	<path style="fill:#FFFFFF;" d="M194.508,145.067c-4.713,0-8.533-3.821-8.533-8.533v-25.6l-10.24,13.653
		c-3.358,4.478-10.295,4.478-13.653,0l-10.24-13.653v25.6c0,4.713-3.821,8.533-8.533,8.533c-4.713,0-8.533-3.821-8.533-8.533v-51.2
		c0-3.673,2.351-6.933,5.835-8.095c3.486-1.162,7.322,0.037,9.525,2.976l18.773,25.03l18.773-25.03
		c2.203-2.939,6.038-4.138,9.525-2.976c3.485,1.162,5.835,4.422,5.835,8.095v51.2C203.041,141.246,199.221,145.067,194.508,145.067z
		"/>
	<path style="fill:#FFFFFF;" d="M254.241,145.067h-34.133c-4.713,0-8.533-3.821-8.533-8.533v-51.2c0-4.713,3.821-8.533,8.533-8.533
		h34.133c4.713,0,8.533,3.821,8.533,8.533v51.2C262.775,141.246,258.954,145.067,254.241,145.067z M228.641,128h17.067V93.867
		h-17.067V128z"/>
	<path style="fill:#FFFFFF;" d="M296.908,145.067c-3.673,0-6.934-2.351-8.096-5.835l-17.067-51.2
		c-1.489-4.47,0.926-9.303,5.397-10.794c4.477-1.492,9.303,0.926,10.795,5.397l8.971,26.913l8.971-26.913
		c1.491-4.47,6.323-6.886,10.795-5.397c4.47,1.49,6.886,6.323,5.397,10.794l-17.067,51.2
		C303.842,142.716,300.581,145.067,296.908,145.067z"/>
</g>
<path style="fill:#427FC9;" d="M398.45,427.095l-28.959-28.959c13.38-18.327,21.283-40.908,21.283-65.337
	c0-61.267-49.666-110.933-110.933-110.933S168.908,271.533,168.908,332.8s49.666,110.933,110.933,110.933
	c18.241,0,35.454-4.404,50.634-12.205l31.772,31.772c3.332,3.332,8.735,3.332,12.068,0l24.135-24.135
	C401.783,435.83,401.783,430.428,398.45,427.095z M279.841,384c-28.277,0-51.2-22.923-51.2-51.2s22.923-51.2,51.2-51.2
	s51.2,22.923,51.2,51.2S308.119,384,279.841,384z"/>
<path style="fill:#3C9FE8;" d="M279.841,256c-42.416,0-76.8,34.384-76.8,76.8c0,42.415,34.384,76.8,76.8,76.8s76.8-34.385,76.8-76.8
	C356.641,290.384,322.257,256,279.841,256z M279.841,384c-28.277,0-51.2-22.923-51.2-51.2s22.923-51.2,51.2-51.2
	s51.2,22.923,51.2,51.2S308.119,384,279.841,384z"/>
<path style="fill:#FFC44F;" d="M280.27,299.095l27.67,27.67c3.332,3.332,3.332,8.736,0,12.068l-27.67,27.67
	c-5.376,5.376-14.567,1.568-14.567-6.034V305.13C265.703,297.527,274.894,293.719,280.27,299.095z"/>
<path style="fill:#F79F4D;" d="M278.592,361.417c-2.688,2.688-7.283,0.784-7.283-3.017v-61.267c-3.129,1.15-5.605,4.055-5.605,7.997
	v55.341c0,7.602,9.191,11.41,14.567,6.034l27.67-27.67c2.811-2.811,3.242-7.091,1.31-10.364L278.592,361.417z"/>
<g>
</g>
<g>
</g>
<g>
</g>
<g>
</g>
<g>
</g>
<g>
</g>
<g>
</g>
<g>
</g>
<g>
</g>
<g>
</g>
<g>
</g>
<g>
</g>
<g>
</g>
<g>
</g>
<g>
</g>
</svg>
