<?xml version="1.0" encoding="iso-8859-1"?>
<!-- Generator: Adobe Illustrator 19.0.0, SVG Export Plug-In . SVG Version: 6.00 Build 0)  -->
<svg version="1.1" id="Layer_1" xmlns="http://www.w3.org/2000/svg" xmlns:xlink="http://www.w3.org/1999/xlink" x="0px" y="0px"
	 viewBox="0 0 512 512" style="enable-background:new 0 0 512 512;" xml:space="preserve">
<path style="fill:#ECEDEF;" d="M100.641,0c-14.139,0-25.6,11.461-25.6,25.6v460.8c0,14.139,11.461,25.6,25.6,25.6h375.467
	c14.139,0,25.6-11.461,25.6-25.6V85.333L416.375,0H100.641z"/>
<path style="fill:#D9DCDF;" d="M441.975,85.333h59.733L416.375,0v59.733C416.375,73.872,427.836,85.333,441.975,85.333z"/>
<path style="fill:#C6CACF;" d="M399.308,42.667H75.041v153.6h324.267c4.713,0,8.533-3.821,8.533-8.533V51.2
	C407.841,46.487,404.02,42.667,399.308,42.667z"/>
<path style="fill:#C4DF64;" d="M382.241,179.2H18.843c-7.602,0-11.41-9.191-6.034-14.567L75.041,102.4L12.809,40.167
	C7.433,34.791,11.241,25.6,18.843,25.6h363.398c4.713,0,8.533,3.821,8.533,8.533v136.533
	C390.775,175.379,386.954,179.2,382.241,179.2z"/>
<g>
	<path style="fill:#FFFFFF;" d="M185.975,76.8h-34.133c-4.713,0-8.533,3.821-8.533,8.533v51.2c0,4.713,3.821,8.533,8.533,8.533
		c4.713,0,8.533-3.821,8.533-8.533v-17.067h3.967l14.533,21.801c1.645,2.467,4.35,3.801,7.108,3.801
		c6.711,0,10.793-7.718,7.092-13.267l-8.223-12.334h1.122c4.713,0,8.533-3.821,8.533-8.533v-25.6
		C194.508,80.621,190.688,76.8,185.975,76.8z M160.375,93.867h17.067v8.533h-17.067V93.867z"/>
	<path style="fill:#FFFFFF;" d="M313.975,110.933v-25.6c0-4.713-3.821-8.533-8.533-8.533h-34.133c-4.713,0-8.533,3.821-8.533,8.533
		v51.2c0,4.713,3.821,8.533,8.533,8.533c4.713,0,8.533-3.821,8.533-8.533v-17.067h3.967l14.533,21.801
		c1.644,2.467,4.35,3.801,7.108,3.801c6.711,0,10.791-7.719,7.091-13.267l-8.222-12.334h1.122
		C310.154,119.467,313.975,115.646,313.975,110.933z M279.841,93.867h17.067v8.533h-17.067V93.867z"/>
	<path style="fill:#FFFFFF;" d="M236.737,82.635c-1.162-3.485-4.422-5.835-8.095-5.835s-6.933,2.351-8.095,5.835l-17.067,51.2
		c-1.49,4.47,0.926,9.303,5.397,10.794c4.471,1.489,9.303-0.927,10.794-5.397l8.972-26.913l8.972,26.913
		c1.191,3.577,4.522,5.838,8.094,5.837c5.742,0,9.907-5.801,8.097-11.234L236.737,82.635z"/>
</g>
<path style="fill:#FFC44F;" d="M228.641,349.867h153.6V256h-153.6c-18.851,0-34.133,15.282-34.133,34.133v25.6
	C194.508,334.585,209.79,349.867,228.641,349.867z"/>
<path style="fill:#FFD791;" d="M224.375,332.8c-7.069,0-12.8-5.731-12.8-12.8v-34.133c0-7.069,5.731-12.8,12.8-12.8h157.867V332.8
	H224.375z"/>
<path style="fill:#DB6B5E;" d="M399.308,358.4h-179.2c-18.821,0-34.133-15.312-34.133-34.133V281.6
	c0-18.821,15.312-34.133,34.133-34.133h179.2c4.713,0,8.533,3.821,8.533,8.533c0,4.713-3.821,8.533-8.533,8.533h-179.2
	c-9.41,0-17.067,7.657-17.067,17.067v42.667c0,9.41,7.657,17.067,17.067,17.067h179.2c4.713,0,8.533,3.821,8.533,8.533
	C407.841,354.579,404.02,358.4,399.308,358.4z"/>
<g>
	<path style="fill:#F79F4D;" d="M228.641,290.133c0,4.713,3.821,8.533,8.533,8.533h145.067V281.6H237.175
		C232.462,281.6,228.641,285.421,228.641,290.133z"/>
	<path style="fill:#F79F4D;" d="M237.175,307.2c-4.713,0-8.533,3.821-8.533,8.533c0,4.713,3.821,8.533,8.533,8.533h145.067V307.2
		H237.175z"/>
</g>
<path style="fill:#FFC44F;" d="M228.641,460.8h153.6v-93.867h-153.6c-18.851,0-34.133,15.282-34.133,34.133v25.6
	C194.508,445.518,209.79,460.8,228.641,460.8z"/>
<path style="fill:#FFD791;" d="M224.375,443.733c-7.069,0-12.8-5.731-12.8-12.8V396.8c0-7.069,5.731-12.8,12.8-12.8h157.867v59.733
	H224.375z"/>
<path style="fill:#FF8C78;" d="M399.308,469.333h-179.2c-18.821,0-34.133-15.312-34.133-34.133v-42.667
	c0-18.821,15.312-34.133,34.133-34.133h179.2c4.713,0,8.533,3.821,8.533,8.533s-3.821,8.533-8.533,8.533h-179.2
	c-9.41,0-17.067,7.657-17.067,17.067V435.2c0,9.41,7.657,17.067,17.067,17.067h179.2c4.713,0,8.533,3.821,8.533,8.533
	S404.02,469.333,399.308,469.333z"/>
<g>
	<path style="fill:#F79F4D;" d="M228.641,401.067c0,4.713,3.821,8.533,8.533,8.533h145.067v-17.067H237.175
		C232.462,392.533,228.641,396.354,228.641,401.067z"/>
	<path style="fill:#F79F4D;" d="M237.175,418.133c-4.713,0-8.533,3.821-8.533,8.533s3.821,8.533,8.533,8.533h145.067v-17.067
		H237.175z"/>
</g>
<path style="fill:#55606E;" d="M357.821,217.2c-3.526-5.859-9.123-9.994-15.759-11.643c-6.637-1.648-13.518-0.615-19.376,2.911
	c-6.329,3.809-16.24,17.498-23.354,28.164c-7.113-10.667-17.025-24.355-23.353-28.164c-12.098-7.281-27.855-3.362-35.136,8.731
	c-7.279,12.094-3.362,27.856,8.732,35.135c6.834,4.114,25.812,6.529,38.8,7.745v209.43h17.067V260.506
	c12.538-1.026,35.899-3.505,43.649-8.171c5.858-3.526,9.993-9.123,11.642-15.759C362.381,229.939,361.346,223.058,357.821,217.2z
	 M258.377,237.713c-4.031-2.427-5.338-7.681-2.911-11.711c2.393-3.973,7.726-5.311,11.707-2.914
	c2.58,1.618,8.833,9.723,15.355,19.203C271.099,240.967,261.013,239.235,258.377,237.713z M344.169,232.461
	c-0.549,2.212-1.927,4.078-3.874,5.249c-2.638,1.522-12.725,3.255-24.156,4.579c6.521-9.481,12.772-17.582,15.348-19.198
	c3.987-2.401,9.314-1.071,11.711,2.911C344.373,227.955,344.718,230.249,344.169,232.461z"/>
<g>
</g>
<g>
</g>
<g>
</g>
<g>
</g>
<g>
</g>
<g>
</g>
<g>
</g>
<g>
</g>
<g>
</g>
<g>
</g>
<g>
</g>
<g>
</g>
<g>
</g>
<g>
</g>
<g>
</g>
</svg>
