<?xml version="1.0" encoding="iso-8859-1"?>
<!-- Generator: Adobe Illustrator 19.0.0, SVG Export Plug-In . SVG Version: 6.00 Build 0)  -->
<svg version="1.1" id="Layer_1" xmlns="http://www.w3.org/2000/svg" xmlns:xlink="http://www.w3.org/1999/xlink" x="0px" y="0px"
	 viewBox="0 0 512 512" style="enable-background:new 0 0 512 512;" xml:space="preserve">
<path style="fill:#ECEDEF;" d="M100.641,0c-14.139,0-25.6,11.461-25.6,25.6v460.8c0,14.139,11.461,25.6,25.6,25.6h375.467
	c14.139,0,25.6-11.461,25.6-25.6V85.333L416.375,0H100.641z"/>
<path style="fill:#D9DCDF;" d="M441.975,85.333h59.733L416.375,0v59.733C416.375,73.872,427.836,85.333,441.975,85.333z"/>
<path style="fill:#C6CACF;" d="M399.308,42.667H75.041v153.6h324.267c4.713,0,8.533-3.821,8.533-8.533V51.2
	C407.841,46.487,404.02,42.667,399.308,42.667z"/>
<path style="fill:#3C9FE8;" d="M382.241,179.2H18.843c-7.602,0-11.41-9.191-6.034-14.567L75.041,102.4L12.809,40.167
	C7.433,34.791,11.241,25.6,18.843,25.6h363.398c4.713,0,8.533,3.821,8.533,8.533v136.533
	C390.775,175.379,386.954,179.2,382.241,179.2z"/>
<g>
	<path style="fill:#FFFFFF;" d="M305.441,145.067h-34.133c-4.713,0-8.533-3.821-8.533-8.533v-51.2c0-4.713,3.821-8.533,8.533-8.533
		h17.067c14.115,0,25.6,11.484,25.6,25.6v34.133C313.975,141.246,310.154,145.067,305.441,145.067z M279.841,128h17.067v-25.6
		c0-4.705-3.828-8.533-8.533-8.533h-8.533V128z"/>
	<path style="fill:#FFFFFF;" d="M245.708,145.067h-25.6c-4.713,0-8.533-3.821-8.533-8.533s3.821-8.533,8.533-8.533h17.067v-8.533
		h-17.067c-4.713,0-8.533-3.821-8.533-8.533v-25.6c0-4.713,3.821-8.533,8.533-8.533h25.6c4.713,0,8.533,3.821,8.533,8.533
		s-3.821,8.533-8.533,8.533h-17.067v8.533h17.067c4.713,0,8.533,3.821,8.533,8.533v25.6
		C254.241,141.246,250.42,145.067,245.708,145.067z"/>
	<path style="fill:#FFFFFF;" d="M160.375,145.067c-4.713,0-8.533-3.821-8.533-8.533v-51.2c0-4.713,3.821-8.533,8.533-8.533h34.133
		c4.713,0,8.533,3.821,8.533,8.533v25.6c0,4.713-3.821,8.533-8.533,8.533h-25.6v17.067
		C168.908,141.246,165.087,145.067,160.375,145.067z M168.908,102.4h17.067v-8.533h-17.067V102.4z"/>
</g>
<path style="fill:#C4DF64;" d="M291.812,384.4h28.575c0.883,0,1.744-0.274,2.465-0.784l25.447-18.013
	c2.671-1.89,3.996-5.283,3.1-8.646c-0.374-1.405-1.182-2.657-2.21-3.685l-4.211-4.211l20.461,0.42
	c1.279,0.027,2.545-0.255,3.693-0.819c1.551-0.763,15.347-7.643,22.124-14.419c16.707-16.707,23.218-39.462,18.828-65.804
	c-3.207-19.244-11.122-33.645-11.457-34.249c-0.726-1.307-1.802-2.382-3.108-3.108c-0.604-0.335-15.005-8.25-34.249-11.457
	c-26.341-4.39-49.095,2.121-65.804,18.828c-6.777,6.777-13.655,20.573-14.419,22.124c-0.564,1.148-0.845,2.414-0.819,3.693
	l0.42,20.461l-4.211-4.211c-1.028-1.028-2.281-1.836-3.685-2.21c-3.364-0.896-6.756,0.428-8.646,3.1l-18.013,25.447
	c-0.51,0.721-0.784,1.582-0.784,2.465v28.575c0,3.802-4.596,5.705-7.283,3.017l-5.814-5.814c-1.87-1.87-4.972-1.606-6.499,0.551
	L204.439,365.7c-16.547,17.57,3.23,48.33,5.563,51.812c0.29,0.434,0.622,0.837,0.99,1.205s0.771,0.7,1.205,0.99
	c3.483,2.333,34.242,22.11,51.812,5.563l30.051-21.273c2.158-1.527,2.421-4.63,0.551-6.499l-5.814-5.814
	C286.108,388.996,288.011,384.4,291.812,384.4z"/>
<g>
	<path style="fill:#8AC451;" d="M216.234,422.199c18.578-92.851,90.97-166.253,183.273-186.325c-0.499-0.99-0.819-1.572-0.881-1.683
		c-0.726-1.307-1.802-2.382-3.108-3.108c-0.604-0.335-15.005-8.25-34.249-11.457c-26.341-4.39-49.095,2.121-65.804,18.828
		c-6.777,6.777-13.655,20.573-14.418,22.124c-0.564,1.148-0.845,2.414-0.819,3.693l0.42,20.461l-4.211-4.211
		c-1.028-1.028-2.281-1.836-3.685-2.21c-3.364-0.896-6.756,0.428-8.646,3.1l-18.013,25.447c-0.51,0.721-0.784,1.582-0.784,2.465
		v28.575c0,3.802-4.596,5.705-7.283,3.017l-5.814-5.814c-1.87-1.87-4.972-1.606-6.499,0.551l-21.273,30.051
		c-16.547,17.57,3.23,48.33,5.562,51.812c0.29,0.434,0.622,0.837,0.99,1.205c0.367,0.368,0.771,0.7,1.205,0.99
		C212.795,420.11,214.22,421.036,216.234,422.199z"/>
	<path style="fill:#8AC451;" d="M229.836,446.81c1.975-3.953,0.374-8.756-3.578-10.734l-14.208-7.104l136.966-136.966
		c3.124-3.124,3.124-8.189,0-11.314c-3.124-3.124-8.19-3.124-11.314,0L200.736,417.658l-7.104-14.208
		c-1.979-3.954-6.782-5.554-10.734-3.578c-3.952,1.977-5.554,6.781-3.578,10.733l9.489,18.979l-26.093,26.093
		c-3.124,3.124-3.124,8.189,0,11.314c3.124,3.124,8.19,3.124,11.314,0l26.093-26.093l18.979,9.489
		C223.055,452.363,227.859,450.761,229.836,446.81z"/>
</g>
<g>
</g>
<g>
</g>
<g>
</g>
<g>
</g>
<g>
</g>
<g>
</g>
<g>
</g>
<g>
</g>
<g>
</g>
<g>
</g>
<g>
</g>
<g>
</g>
<g>
</g>
<g>
</g>
<g>
</g>
</svg>
