<?xml version="1.0" encoding="iso-8859-1"?>
<!-- Generator: Adobe Illustrator 19.0.0, SVG Export Plug-In . SVG Version: 6.00 Build 0)  -->
<svg version="1.1" id="Layer_1" xmlns="http://www.w3.org/2000/svg" xmlns:xlink="http://www.w3.org/1999/xlink" x="0px" y="0px"
	 viewBox="0 0 512 512" style="enable-background:new 0 0 512 512;" xml:space="preserve">
<path style="fill:#ECEDEF;" d="M100.641,0c-14.139,0-25.6,11.461-25.6,25.6v460.8c0,14.139,11.461,25.6,25.6,25.6h375.467
	c14.139,0,25.6-11.461,25.6-25.6V85.333L416.375,0H100.641z"/>
<path style="fill:#D9DCDF;" d="M441.975,85.333h59.733L416.375,0v59.733C416.375,73.872,427.836,85.333,441.975,85.333z"/>
<path style="fill:#C6CACF;" d="M399.308,42.667H75.041v153.6h324.267c4.713,0,8.533-3.821,8.533-8.533V51.2
	C407.841,46.487,404.02,42.667,399.308,42.667z"/>
<path style="fill:#FFC44F;" d="M382.241,179.2H18.843c-7.602,0-11.41-9.191-6.034-14.567L75.041,102.4L12.809,40.167
	C7.433,34.791,11.241,25.6,18.843,25.6h363.398c4.713,0,8.533,3.821,8.533,8.533v136.533
	C390.775,175.379,386.954,179.2,382.241,179.2z"/>
<g>
	<path style="fill:#FFFFFF;" d="M194.508,128H170.06l31.003-37.203c2.119-2.544,2.577-6.084,1.173-9.083
		c-1.405-2.998-4.417-4.914-7.728-4.914h-42.667c-4.713,0-8.533,3.821-8.533,8.533s3.821,8.533,8.533,8.533h24.448l-31.003,37.203
		c-2.119,2.544-2.577,6.084-1.173,9.083c1.405,2.998,4.417,4.914,7.728,4.914h42.667c4.713,0,8.533-3.821,8.533-8.533
		S199.22,128,194.508,128z"/>
	<path style="fill:#FFFFFF;" d="M220.108,76.8c-4.713,0-8.533,3.821-8.533,8.533v51.2c0,4.713,3.821,8.533,8.533,8.533
		c4.713,0,8.533-3.821,8.533-8.533v-51.2C228.641,80.621,224.82,76.8,220.108,76.8z"/>
	<path style="fill:#FFFFFF;" d="M279.841,76.8h-34.133c-4.713,0-8.533,3.821-8.533,8.533v51.2c0,4.713,3.821,8.533,8.533,8.533
		c4.713,0,8.533-3.821,8.533-8.533v-17.067h25.6c4.713,0,8.533-3.821,8.533-8.533v-25.6C288.375,80.621,284.554,76.8,279.841,76.8z
		 M271.308,102.4h-17.067v-8.533h17.067V102.4z"/>
</g>
<path style="fill:#A1A7AF;" d="M416.37,332.8c-1.927,0-3.863-0.649-5.458-1.978l-51.2-42.667c-1.946-1.621-3.071-4.023-3.071-6.556
	s1.125-4.934,3.071-6.556l51.2-42.667c3.62-3.017,9.001-2.527,12.018,1.092c3.018,3.621,2.528,9.002-1.092,12.019L378.504,281.6
	l43.333,36.111c3.621,3.018,4.111,8.398,1.092,12.019C421.243,331.755,418.815,332.8,416.37,332.8z"/>
<g>
	<path style="fill:#55606E;" d="M313.975,315.733c-4.713,0-8.533-3.821-8.533-8.533v-25.6c0-4.713,3.821-8.533,8.533-8.533
		s8.533,3.821,8.533,8.533v25.6C322.508,311.913,318.687,315.733,313.975,315.733z"/>
	<path style="fill:#55606E;" d="M365.175,273.067h-17.067V256c0-4.713-3.821-8.533-8.533-8.533c-4.713,0-8.533,3.821-8.533,8.533
		v17.067h-34.133V256c0-4.713-3.821-8.533-8.533-8.533s-8.533,3.821-8.533,8.533v17.067h-34.133V256
		c0-4.713-3.821-8.533-8.533-8.533c-4.713,0-8.533,3.821-8.533,8.533v17.067h-34.133V256c0-4.713-3.821-8.533-8.533-8.533
		c-4.713,0-8.533,3.821-8.533,8.533v17.067h-17.067c-4.713,0-8.533,3.821-8.533,8.533c0,4.713,3.821,8.533,8.533,8.533h42.667V307.2
		c0,4.713,3.821,8.533,8.533,8.533c4.713,0,8.533-3.821,8.533-8.533v-17.067h34.133V307.2c0,4.713,3.821,8.533,8.533,8.533
		s8.533-3.821,8.533-8.533v-17.067h93.867c4.713,0,8.533-3.821,8.533-8.533C373.708,276.887,369.887,273.067,365.175,273.067z"/>
	<path style="fill:#55606E;" d="M365.175,349.333c-4.419,0-8-3.582-8-8V281.6c0-4.418,3.581-8,8-8c4.419,0,8,3.582,8,8v59.733
		C373.175,345.751,369.594,349.333,365.175,349.333z"/>
</g>
<path style="fill:#F79F4D;" d="M333.54,364.434l25.6-25.6c3.332-3.332,8.736-3.332,12.068,0l25.6,25.6
	c1.6,1.6,2.499,3.771,2.499,6.034V460.8c0,4.713-3.821,8.533-8.533,8.533h-51.2c-4.713,0-8.533-3.821-8.533-8.533v-90.332
	C331.041,368.205,331.94,366.034,333.54,364.434z"/>
<polygon style="fill:#FFC44F;" points="339.575,460.8 339.575,370.467 365.175,344.867 390.775,370.467 390.775,460.8 "/>
<g>
	<path style="fill:#BF722A;" d="M365.175,451.733c-4.419,0-8-3.582-8-8v-17.067c0-4.418,3.581-8,8-8c4.419,0,8,3.582,8,8v17.067
		C373.175,448.151,369.594,451.733,365.175,451.733z"/>
	<path style="fill:#BF722A;" d="M365.175,400.533c-4.419,0-8-3.582-8-8v-17.067c0-4.418,3.581-8,8-8c4.419,0,8,3.582,8,8v17.067
		C373.175,396.951,369.594,400.533,365.175,400.533z"/>
</g>
<g>
</g>
<g>
</g>
<g>
</g>
<g>
</g>
<g>
</g>
<g>
</g>
<g>
</g>
<g>
</g>
<g>
</g>
<g>
</g>
<g>
</g>
<g>
</g>
<g>
</g>
<g>
</g>
<g>
</g>
</svg>
