<?xml version="1.0" encoding="iso-8859-1"?>
<!-- Generator: Adobe Illustrator 19.0.0, SVG Export Plug-In . SVG Version: 6.00 Build 0)  -->
<svg version="1.1" id="Layer_1" xmlns="http://www.w3.org/2000/svg" xmlns:xlink="http://www.w3.org/1999/xlink" x="0px" y="0px"
	 viewBox="0 0 512 512" style="enable-background:new 0 0 512 512;" xml:space="preserve">
<path style="fill:#ECEDEF;" d="M100.641,0c-14.139,0-25.6,11.461-25.6,25.6v460.8c0,14.139,11.461,25.6,25.6,25.6h375.467
	c14.139,0,25.6-11.461,25.6-25.6V85.333L416.375,0H100.641z"/>
<path style="fill:#D9DCDF;" d="M441.975,85.333h59.733L416.375,0v59.733C416.375,73.872,427.836,85.333,441.975,85.333z"/>
<path style="fill:#C6CACF;" d="M399.308,42.667H75.041v153.6h324.267c4.713,0,8.533-3.821,8.533-8.533V51.2
	C407.841,46.487,404.02,42.667,399.308,42.667z"/>
<path style="fill:#FF8C78;" d="M382.241,179.2H18.843c-7.602,0-11.41-9.191-6.034-14.567L75.041,102.4L12.809,40.167
	C7.433,34.791,11.241,25.6,18.843,25.6h363.398c4.713,0,8.533,3.821,8.533,8.533v136.533
	C390.775,175.379,386.954,179.2,382.241,179.2z"/>
<g>
	<path style="fill:#FFFFFF;" d="M305.441,93.867h-8.533c-4.713,0-8.533,3.821-8.533,8.533c0,4.713,3.821,8.533,8.533,8.533v8.533
		h-17.067V85.333h25.6c4.713,0,8.533-3.821,8.533-8.533s-3.821-8.533-8.533-8.533h-34.133c-4.713,0-8.533,3.821-8.533,8.533V128
		c0,4.713,3.821,8.533,8.533,8.533h34.133c4.713,0,8.533-3.821,8.533-8.533v-25.6C313.975,97.687,310.155,93.867,305.441,93.867z"/>
	<path style="fill:#FFFFFF;" d="M245.708,68.267h-34.133c-4.713,0-8.533,3.821-8.533,8.533V128c0,4.713,3.821,8.533,8.533,8.533
		c4.713,0,8.533-3.821,8.533-8.533v-17.067h25.6c4.713,0,8.533-3.821,8.533-8.533V76.8
		C254.241,72.087,250.421,68.267,245.708,68.267z M237.175,93.867h-17.067v-8.533h17.067V93.867z"/>
	<path style="fill:#FFFFFF;" d="M185.975,68.267h-25.6c-4.713,0-8.533,3.821-8.533,8.533s3.821,8.533,8.533,8.533h8.533v25.6
		c0,4.705-3.828,8.533-8.533,8.533h-17.067c-4.713,0-8.533,3.821-8.533,8.533c0,4.713,3.821,8.533,8.533,8.533h17.067
		c14.116,0,25.6-11.484,25.6-25.6v-25.6c4.713,0,8.533-3.821,8.533-8.533S190.688,68.267,185.975,68.267z"/>
</g>
<path style="fill:#3C9FE8;" d="M399.308,477.867H177.441c-9.426,0-17.067-7.641-17.067-17.067V238.933
	c0-9.426,7.641-17.067,17.067-17.067h221.867c9.426,0,17.067,7.641,17.067,17.067V460.8
	C416.375,470.226,408.734,477.867,399.308,477.867z"/>
<path style="fill:#8AC451;" d="M160.375,460.8c0,9.426,7.641,17.067,17.067,17.067h221.867c9.426,0,17.067-7.641,17.067-17.067
	v-25.6h-256L160.375,460.8L160.375,460.8z"/>
<circle style="fill:#FFD791;" cx="279.84" cy="281.6" r="42.667"/>
<circle style="fill:#FFC44F;" cx="279.84" cy="281.6" r="25.6"/>
<g>
	<path style="fill:#C5E8FA;" d="M211.575,256h-17.067c-4.713,0-8.533-3.821-8.533-8.533c0-4.713,3.821-8.533,8.533-8.533h17.067
		c4.713,0,8.533,3.821,8.533,8.533C220.108,252.179,216.288,256,211.575,256z"/>
	<path style="fill:#C5E8FA;" d="M365.175,290.133h-17.067c-4.713,0-8.533-3.821-8.533-8.533c0-4.713,3.821-8.533,8.533-8.533h17.067
		c4.713,0,8.533,3.821,8.533,8.533C373.708,286.313,369.888,290.133,365.175,290.133z"/>
	<path style="fill:#C5E8FA;" d="M382.241,315.733h-17.067c-4.713,0-8.533-3.821-8.533-8.533s3.821-8.533,8.533-8.533h17.067
		c4.713,0,8.533,3.821,8.533,8.533S386.955,315.733,382.241,315.733z"/>
</g>
<polygon style="fill:#C4DF64;" points="160.375,358.4 220.108,290.133 322.508,409.6 365.175,358.4 416.375,418.133 416.375,435.2 
	160.375,435.2 "/>
<g>
	<polygon style="fill:#ECEDEF;" points="365.175,358.4 329.619,401.067 401.746,401.067 	"/>
	<polygon style="fill:#ECEDEF;" points="220.108,290.133 167.841,349.867 271.308,349.867 	"/>
</g>
<g>
</g>
<g>
</g>
<g>
</g>
<g>
</g>
<g>
</g>
<g>
</g>
<g>
</g>
<g>
</g>
<g>
</g>
<g>
</g>
<g>
</g>
<g>
</g>
<g>
</g>
<g>
</g>
<g>
</g>
</svg>
