<?xml version="1.0" encoding="iso-8859-1"?>
<!-- Generator: Adobe Illustrator 19.0.0, SVG Export Plug-In . SVG Version: 6.00 Build 0)  -->
<svg version="1.1" id="Layer_1" xmlns="http://www.w3.org/2000/svg" xmlns:xlink="http://www.w3.org/1999/xlink" x="0px" y="0px"
	 viewBox="0 0 512 512" style="enable-background:new 0 0 512 512;" xml:space="preserve">
<path style="fill:#ECEDEF;" d="M100.641,0c-14.139,0-25.6,11.461-25.6,25.6v460.8c0,14.139,11.461,25.6,25.6,25.6h375.467
	c14.139,0,25.6-11.461,25.6-25.6V85.333L416.375,0H100.641z"/>
<path style="fill:#D9DCDF;" d="M441.975,85.333h59.733L416.375,0v59.733C416.375,73.872,427.836,85.333,441.975,85.333z"/>
<path style="fill:#C6CACF;" d="M399.308,42.667H75.041v153.6h324.267c4.713,0,8.533-3.821,8.533-8.533V51.2
	C407.841,46.487,404.02,42.667,399.308,42.667z"/>
<path style="fill:#68727E;" d="M382.241,179.2H18.843c-7.602,0-11.41-9.191-6.034-14.567L75.041,102.4L12.809,40.167
	C7.433,34.791,11.241,25.6,18.843,25.6h363.398c4.713,0,8.533,3.821,8.533,8.533v136.533
	C390.775,175.379,386.954,179.2,382.241,179.2z"/>
<g>
	<path style="fill:#FFFFFF;" d="M203.041,76.8h-34.133c-4.713,0-8.533,3.821-8.533,8.533v51.2c0,4.713,3.821,8.533,8.533,8.533
		c4.713,0,8.533-3.821,8.533-8.533v-17.067h25.6c4.713,0,8.533-3.821,8.533-8.533v-25.6C211.575,80.621,207.755,76.8,203.041,76.8z
		 M194.508,102.4h-17.067v-8.533h17.067V102.4z"/>
	<path style="fill:#FFFFFF;" d="M245.708,76.8h-17.067c-4.713,0-8.533,3.821-8.533,8.533v51.2c0,4.713,3.821,8.533,8.533,8.533
		h34.133c4.713,0,8.533-3.821,8.533-8.533V102.4C271.308,88.284,259.824,76.8,245.708,76.8z M254.241,128h-17.067V93.867h8.533
		c4.705,0,8.533,3.828,8.533,8.533V128z"/>
	<path style="fill:#FFFFFF;" d="M322.508,76.8h-34.133c-4.713,0-8.533,3.821-8.533,8.533v51.2c0,4.713,3.821,8.533,8.533,8.533
		s8.533-3.821,8.533-8.533v-17.067h17.067c4.713,0,8.533-3.821,8.533-8.533s-3.821-8.533-8.533-8.533h-17.067v-8.533h25.6
		c4.713,0,8.533-3.821,8.533-8.533S327.22,76.8,322.508,76.8z"/>
</g>
<path style="fill:#C6CACF;" d="M416.375,469.333h-256c-4.713,0-8.533-3.821-8.533-8.533V221.867c0-4.713,3.821-8.533,8.533-8.533
	h256c4.713,0,8.533,3.821,8.533,8.533V460.8C424.908,465.513,421.087,469.333,416.375,469.333z"/>
<path style="fill:#B3B9BF;" d="M168.908,452.267V213.333h-8.533c-4.713,0-8.533,3.821-8.533,8.533V460.8
	c0,4.713,3.821,8.533,8.533,8.533h256c4.713,0,8.533-3.821,8.533-8.533v-8.533H168.908z"/>
<path style="fill:#DB6B5E;" d="M390.775,435.2h-93.867c-4.713,0-8.533-3.821-8.533-8.533v-102.4c0-4.713,3.821-8.533,8.533-8.533
	h93.867c4.713,0,8.533,3.821,8.533,8.533v102.4C399.308,431.379,395.487,435.2,390.775,435.2z"/>
<rect x="305.44" y="332.8" style="fill:#FF8C78;" width="76.8" height="85.333"/>
<g>
	<path style="fill:#8E959F;" d="M390.775,264.533h-93.867c-4.713,0-8.533-3.821-8.533-8.533c0-4.713,3.821-8.533,8.533-8.533h93.867
		c4.713,0,8.533,3.821,8.533,8.533C399.308,260.713,395.487,264.533,390.775,264.533z"/>
	<path style="fill:#8E959F;" d="M390.775,298.667h-93.867c-4.713,0-8.533-3.821-8.533-8.533c0-4.713,3.821-8.533,8.533-8.533h93.867
		c4.713,0,8.533,3.821,8.533,8.533C399.308,294.846,395.487,298.667,390.775,298.667z"/>
	<path style="fill:#8E959F;" d="M271.308,264.533h-85.333c-4.713,0-8.533-3.821-8.533-8.533c0-4.713,3.821-8.533,8.533-8.533h85.333
		c4.713,0,8.533,3.821,8.533,8.533C279.841,260.713,276.02,264.533,271.308,264.533z"/>
	<path style="fill:#8E959F;" d="M271.308,298.667h-85.333c-4.713,0-8.533-3.821-8.533-8.533c0-4.713,3.821-8.533,8.533-8.533h85.333
		c4.713,0,8.533,3.821,8.533,8.533C279.841,294.846,276.02,298.667,271.308,298.667z"/>
	<path style="fill:#8E959F;" d="M271.308,332.8h-85.333c-4.713,0-8.533-3.821-8.533-8.533c0-4.713,3.821-8.533,8.533-8.533h85.333
		c4.713,0,8.533,3.821,8.533,8.533C279.841,328.979,276.02,332.8,271.308,332.8z"/>
	<path style="fill:#8E959F;" d="M271.308,366.933h-85.333c-4.713,0-8.533-3.821-8.533-8.533s3.821-8.533,8.533-8.533h85.333
		c4.713,0,8.533,3.821,8.533,8.533S276.02,366.933,271.308,366.933z"/>
	<path style="fill:#8E959F;" d="M271.308,401.067h-85.333c-4.713,0-8.533-3.821-8.533-8.533s3.821-8.533,8.533-8.533h85.333
		c4.713,0,8.533,3.821,8.533,8.533S276.02,401.067,271.308,401.067z"/>
	<path style="fill:#8E959F;" d="M271.308,435.2h-85.333c-4.713,0-8.533-3.821-8.533-8.533s3.821-8.533,8.533-8.533h85.333
		c4.713,0,8.533,3.821,8.533,8.533S276.02,435.2,271.308,435.2z"/>
</g>
<g>
</g>
<g>
</g>
<g>
</g>
<g>
</g>
<g>
</g>
<g>
</g>
<g>
</g>
<g>
</g>
<g>
</g>
<g>
</g>
<g>
</g>
<g>
</g>
<g>
</g>
<g>
</g>
<g>
</g>
</svg>
