<?xml version="1.0" encoding="iso-8859-1"?>
<!-- Generator: Adobe Illustrator 19.0.0, SVG Export Plug-In . SVG Version: 6.00 Build 0)  -->
<svg version="1.1" id="Layer_1" xmlns="http://www.w3.org/2000/svg" xmlns:xlink="http://www.w3.org/1999/xlink" x="0px" y="0px"
	 viewBox="0 0 512 512" style="enable-background:new 0 0 512 512;" xml:space="preserve">
<path style="fill:#ECEDEF;" d="M100.641,0c-14.139,0-25.6,11.461-25.6,25.6v460.8c0,14.139,11.461,25.6,25.6,25.6h375.467
	c14.139,0,25.6-11.461,25.6-25.6V85.333L416.375,0H100.641z"/>
<path style="fill:#D9DCDF;" d="M441.975,85.333h59.733L416.375,0v59.733C416.375,73.872,427.836,85.333,441.975,85.333z"/>
<path style="fill:#C6CACF;" d="M399.308,42.667H75.041v153.6h324.267c4.713,0,8.533-3.821,8.533-8.533V51.2
	C407.841,46.487,404.02,42.667,399.308,42.667z"/>
<path style="fill:#3C9FE8;" d="M382.241,179.2H18.843c-7.602,0-11.41-9.191-6.034-14.567L75.041,102.4L12.809,40.167
	C7.433,34.791,11.241,25.6,18.843,25.6h363.398c4.713,0,8.533,3.821,8.533,8.533v136.533
	C390.775,175.379,386.954,179.2,382.241,179.2z"/>
<g>
	<path style="fill:#FFFFFF;" d="M177.441,76.8h-34.133c-4.713,0-8.533,3.821-8.533,8.533s3.821,8.533,8.533,8.533h8.533v42.667
		c0,4.713,3.821,8.533,8.533,8.533c4.713,0,8.533-3.821,8.533-8.533V93.867h8.533c4.713,0,8.533-3.821,8.533-8.533
		S182.155,76.8,177.441,76.8z"/>
	<path style="fill:#FFFFFF;" d="M203.041,76.8c-4.713,0-8.533,3.821-8.533,8.533v51.2c0,4.713,3.821,8.533,8.533,8.533
		c4.713,0,8.533-3.821,8.533-8.533v-51.2C211.575,80.621,207.755,76.8,203.041,76.8z"/>
	<path style="fill:#FFFFFF;" d="M254.241,76.8h-25.6c-4.713,0-8.533,3.821-8.533,8.533v51.2c0,4.713,3.821,8.533,8.533,8.533
		c4.713,0,8.533-3.821,8.533-8.533v-17.067h8.533c4.713,0,8.533-3.821,8.533-8.533s-3.821-8.533-8.533-8.533h-8.533v-8.533h17.067
		c4.713,0,8.533-3.821,8.533-8.533S258.955,76.8,254.241,76.8z"/>
	<path style="fill:#FFFFFF;" d="M305.441,76.8h-25.6c-4.713,0-8.533,3.821-8.533,8.533v51.2c0,4.713,3.821,8.533,8.533,8.533
		c4.713,0,8.533-3.821,8.533-8.533v-17.067h8.533c4.713,0,8.533-3.821,8.533-8.533s-3.821-8.533-8.533-8.533h-8.533v-8.533h17.067
		c4.713,0,8.533-3.821,8.533-8.533S310.155,76.8,305.441,76.8z"/>
</g>
<path style="fill:#FFC44F;" d="M304.063,217.81l86.711,157.657H194.508l94.761-157.935
	C292.656,211.886,300.891,212.041,304.063,217.81z"/>
<polygon style="fill:#F79F4D;" points="390.775,375.467 353.228,307.2 235.468,307.2 194.508,375.467 "/>
<circle style="fill:#FF8C78;" cx="232.907" cy="405.333" r="72.533"/>
<path style="fill:#DB6B5E;" d="M258.508,460.8c-40.059,0-72.533-32.475-72.533-72.533c0-19.616,7.801-37.401,20.452-50.458
	c-26.957,10.581-46.052,36.814-46.052,67.524c0,40.059,32.475,72.533,72.533,72.533c20.443,0,38.897-8.469,52.081-22.076
	C276.783,459.012,267.857,460.8,258.508,460.8z"/>
<path style="fill:#8AC451;" d="M407.841,477.867H271.308c-4.713,0-8.533-3.821-8.533-8.533V332.8c0-4.713,3.821-8.533,8.533-8.533
	h136.533c4.713,0,8.533,3.821,8.533,8.533v136.533C416.375,474.046,412.554,477.867,407.841,477.867z"/>
<path style="fill:#529E44;" d="M279.841,460.8V324.267h-8.533c-4.713,0-8.533,3.821-8.533,8.533v136.533
	c0,4.713,3.821,8.533,8.533,8.533h136.533c4.713,0,8.533-3.821,8.533-8.533V460.8H279.841z"/>
<g>
</g>
<g>
</g>
<g>
</g>
<g>
</g>
<g>
</g>
<g>
</g>
<g>
</g>
<g>
</g>
<g>
</g>
<g>
</g>
<g>
</g>
<g>
</g>
<g>
</g>
<g>
</g>
<g>
</g>
</svg>
