<?xml version="1.0" encoding="iso-8859-1"?>
<!-- Generator: Adobe Illustrator 19.0.0, SVG Export Plug-In . SVG Version: 6.00 Build 0)  -->
<svg version="1.1" id="Layer_1" xmlns="http://www.w3.org/2000/svg" xmlns:xlink="http://www.w3.org/1999/xlink" x="0px" y="0px"
	 viewBox="0 0 512 512" style="enable-background:new 0 0 512 512;" xml:space="preserve">
<path style="fill:#ECEDEF;" d="M100.641,0c-14.139,0-25.6,11.461-25.6,25.6v460.8c0,14.139,11.461,25.6,25.6,25.6h375.467
	c14.139,0,25.6-11.461,25.6-25.6V85.333L416.375,0H100.641z"/>
<path style="fill:#D9DCDF;" d="M441.975,85.333h59.733L416.375,0v59.733C416.375,73.872,427.836,85.333,441.975,85.333z"/>
<path style="fill:#C6CACF;" d="M399.308,42.667H75.041v153.6h324.267c4.713,0,8.533-3.821,8.533-8.533V51.2
	C407.841,46.487,404.02,42.667,399.308,42.667z"/>
<path style="fill:#FF8C78;" d="M382.241,179.2H18.843c-7.602,0-11.41-9.191-6.034-14.567L75.041,102.4L12.809,40.167
	C7.433,34.791,11.241,25.6,18.843,25.6h363.398c4.713,0,8.533,3.821,8.533,8.533v136.533
	C390.775,175.379,386.954,179.2,382.241,179.2z"/>
<g>
	<path style="fill:#FFFFFF;" d="M151.841,145.067c-4.713,0-8.533-3.821-8.533-8.533v-51.2c0-4.713,3.821-8.533,8.533-8.533h34.133
		c4.713,0,8.533,3.821,8.533,8.533v25.6c0,4.713-3.821,8.533-8.533,8.533h-25.6v17.067
		C160.375,141.246,156.554,145.067,151.841,145.067z M160.375,102.4h17.067v-8.533h-17.067V102.4z"/>
	<path style="fill:#FFFFFF;" d="M245.709,145.067c-2.8,0-5.489-1.381-7.101-3.801l-18.5-27.749v23.017
		c0,4.713-3.821,8.533-8.533,8.533c-4.713,0-8.533-3.821-8.533-8.533v-51.2c0-3.76,2.462-7.077,6.061-8.167
		c3.603-1.089,7.488,0.305,9.573,3.434l18.5,27.749V85.333c0-4.713,3.821-8.533,8.533-8.533c4.713,0,8.533,3.821,8.533,8.533v51.2
		c0,3.76-2.462,7.077-6.061,8.167C247.363,144.948,246.531,145.067,245.709,145.067z"/>
	<path style="fill:#FFFFFF;" d="M305.441,145.067h-34.133c-4.713,0-8.533-3.821-8.533-8.533v-51.2c0-4.713,3.821-8.533,8.533-8.533
		h34.133c4.713,0,8.533,3.821,8.533,8.533s-3.821,8.533-8.533,8.533h-25.6V128h17.067v-8.533c-4.713,0-8.533-3.821-8.533-8.533
		s3.821-8.533,8.533-8.533h8.533c4.713,0,8.533,3.821,8.533,8.533v25.6C313.975,141.246,310.154,145.067,305.441,145.067z"/>
</g>
<path style="fill:#C6CACF;" d="M390.775,281.6c4.713,0,8.533-3.821,8.533-8.533v-34.133c0-4.713-3.821-8.533-8.533-8.533h-34.133
	c-4.713,0-8.533,3.821-8.533,8.533v34.133h-34.133v-34.133c0-4.713-3.821-8.533-8.533-8.533h-34.133
	c-4.713,0-8.533,3.821-8.533,8.533v34.133h-34.133v-34.133c0-4.713-3.821-8.533-8.533-8.533h-34.133
	c-4.713,0-8.533,3.821-8.533,8.533v34.133c0,4.713,3.821,8.533,8.533,8.533h34.133v34.133h-34.133c-4.713,0-8.533,3.821-8.533,8.533
	V358.4c0,4.713,3.821,8.533,8.533,8.533h34.133v34.133h-34.133c-4.713,0-8.533,3.821-8.533,8.533v34.133
	c0,4.713,3.821,8.533,8.533,8.533h34.133c4.713,0,8.533-3.821,8.533-8.533V409.6h34.133v34.133c0,4.713,3.821,8.533,8.533,8.533
	h34.133c4.713,0,8.533-3.821,8.533-8.533V409.6h34.133v34.133c0,4.713,3.821,8.533,8.533,8.533h34.133
	c4.713,0,8.533-3.821,8.533-8.533V409.6c0-4.713-3.821-8.533-8.533-8.533h-34.133v-34.133h34.133c4.713,0,8.533-3.821,8.533-8.533
	v-34.133c0-4.713-3.821-8.533-8.533-8.533h-34.133V281.6H390.775z M305.441,281.6v34.133h-34.133V281.6H305.441z M228.641,358.4
	v-34.133h34.133V358.4H228.641z M271.308,401.067v-34.133h34.133v34.133H271.308z M313.975,358.4v-34.133h34.133V358.4H313.975z"/>
<g>
</g>
<g>
</g>
<g>
</g>
<g>
</g>
<g>
</g>
<g>
</g>
<g>
</g>
<g>
</g>
<g>
</g>
<g>
</g>
<g>
</g>
<g>
</g>
<g>
</g>
<g>
</g>
<g>
</g>
</svg>
