<?xml version="1.0" encoding="iso-8859-1"?>
<!-- Generator: Adobe Illustrator 19.0.0, SVG Export Plug-In . SVG Version: 6.00 Build 0)  -->
<svg version="1.1" id="Layer_1" xmlns="http://www.w3.org/2000/svg" xmlns:xlink="http://www.w3.org/1999/xlink" x="0px" y="0px"
	 viewBox="0 0 512 512" style="enable-background:new 0 0 512 512;" xml:space="preserve">
<path style="fill:#D9DCDF;" d="M469.333,179.2H42.667V59.733c0-4.713,3.821-8.533,8.533-8.533h409.6
	c4.713,0,8.533,3.821,8.533,8.533V179.2z"/>
<rect x="42.667" y="119.467" style="fill:#C6CACF;" width="426.667" height="51.2"/>
<path style="fill:#AAB0B7;" d="M145.067,136.533V102.4c0-9.426-7.641-17.067-17.067-17.067H17.067C7.641,85.333,0,92.974,0,102.4
	v341.333c0,9.426,7.641,17.067,17.067,17.067h477.867c9.426,0,17.067-7.641,17.067-17.067V153.6c0-9.426-7.641-17.067-17.067-17.067
	H145.067z"/>
<path style="fill:#979EA7;" d="M34.133,435.2c-4.713,0-8.533-3.821-8.533-8.533V85.333h-8.533C7.641,85.333,0,92.975,0,102.4
	v341.333c0,9.425,7.641,17.067,17.067,17.067h477.867c9.426,0,17.067-7.642,17.067-17.067V435.2H34.133z"/>
<path style="fill:#3C9FE8;" d="M349.867,273.067c-9.004,0-17.727,1.994-25.649,5.769c-1.46-41.073-35.329-74.035-76.751-74.035
	c-36.512,0-67.295,25.237-74.971,60.026c-2.028-0.195-4.064-0.292-6.096-0.292c-35.29,0-64,28.71-64,64
	c0,33.35,25.953,61.452,59.086,63.975c0.215,0.017,0.431,0.025,0.647,0.025h187.733c32.938,0,59.733-26.796,59.733-59.733
	S382.804,273.067,349.867,273.067z"/>
<path style="fill:#427FC9;" d="M366.933,375.467H179.2c-0.217,0-0.432-0.009-0.647-0.025c-33.133-2.524-59.086-30.625-59.086-63.975
	c0-13.293,4.077-25.649,11.041-35.892c-16.95,11.524-28.108,30.962-28.108,52.959c0,33.35,25.953,61.452,59.086,63.975
	c0.215,0.017,0.431,0.025,0.647,0.025h187.733c20.825,0,39.184-10.719,49.878-26.922
	C390.321,371.833,379.046,375.467,366.933,375.467z"/>
<path style="fill:#55606E;" d="M273.067,307.2c-4.713,0-8.533-3.821-8.533-8.533v-25.6c0-4.705-3.828-8.533-8.533-8.533h-17.067
	c-4.705,0-8.533,3.828-8.533,8.533v25.6c0,4.713-3.821,8.533-8.533,8.533c-4.713,0-8.533-3.821-8.533-8.533v-25.6
	c0-14.115,11.485-25.6,25.6-25.6H256c14.115,0,25.6,11.485,25.6,25.6v25.6C281.6,303.379,277.779,307.2,273.067,307.2z"/>
<path style="fill:#FFC44F;" d="M290.133,290.667H204.8c-4.419,0-8,3.581-8,8V358.4c0,4.419,3.581,8,8,8h85.333c4.419,0,8-3.581,8-8
	v-59.733C298.133,294.247,294.553,290.667,290.133,290.667z"/>
<path style="fill:#BF722A;" d="M247.467,341.333c-4.713,0-8.533-3.821-8.533-8.533v-8.533c0-4.713,3.821-8.533,8.533-8.533
	c4.713,0,8.533,3.821,8.533,8.533v8.533C256,337.513,252.179,341.333,247.467,341.333z"/>
<g>
</g>
<g>
</g>
<g>
</g>
<g>
</g>
<g>
</g>
<g>
</g>
<g>
</g>
<g>
</g>
<g>
</g>
<g>
</g>
<g>
</g>
<g>
</g>
<g>
</g>
<g>
</g>
<g>
</g>
</svg>
