<?xml version="1.0" encoding="iso-8859-1"?>
<!-- Generator: Adobe Illustrator 19.0.0, SVG Export Plug-In . SVG Version: 6.00 Build 0)  -->
<svg version="1.1" id="Layer_1" xmlns="http://www.w3.org/2000/svg" xmlns:xlink="http://www.w3.org/1999/xlink" x="0px" y="0px"
	 viewBox="0 0 512 512" style="enable-background:new 0 0 512 512;" xml:space="preserve">
<path style="fill:#ECEDEF;" d="M100.641,0c-14.139,0-25.6,11.461-25.6,25.6v460.8c0,14.139,11.461,25.6,25.6,25.6h375.467
	c14.139,0,25.6-11.461,25.6-25.6V85.333L416.375,0H100.641z"/>
<path style="fill:#D9DCDF;" d="M441.975,85.333h59.733L416.375,0v59.733C416.375,73.872,427.836,85.333,441.975,85.333z"/>
<path style="fill:#C6CACF;" d="M399.308,42.667H75.041v153.6h324.267c4.713,0,8.533-3.821,8.533-8.533V51.2
	C407.841,46.487,404.02,42.667,399.308,42.667z"/>
<path style="fill:#FF8C78;" d="M382.241,179.2H18.843c-7.602,0-11.41-9.191-6.034-14.567L75.041,102.4L12.809,40.167
	C7.433,34.791,11.241,25.6,18.843,25.6h363.398c4.713,0,8.533,3.821,8.533,8.533v136.533
	C390.775,175.379,386.954,179.2,382.241,179.2z"/>
<g>
	<path style="fill:#FFFFFF;" d="M194.508,76.8h-34.133c-4.713,0-8.533,3.821-8.533,8.533v51.2c0,4.713,3.821,8.533,8.533,8.533
		c4.713,0,8.533-3.821,8.533-8.533v-17.067h25.6c4.713,0,8.533-3.821,8.533-8.533v-25.6C203.041,80.621,199.221,76.8,194.508,76.8z
		 M185.975,102.4h-17.067v-8.533h17.067V102.4z"/>
	<path style="fill:#FFFFFF;" d="M254.241,76.8h-34.133c-4.713,0-8.533,3.821-8.533,8.533v51.2c0,4.713,3.821,8.533,8.533,8.533
		c4.713,0,8.533-3.821,8.533-8.533v-17.067h25.6c4.713,0,8.533-3.821,8.533-8.533v-25.6C262.775,80.621,258.955,76.8,254.241,76.8z
		 M245.708,102.4h-17.067v-8.533h17.067V102.4z"/>
	<path style="fill:#FFFFFF;" d="M313.975,76.8h-34.133c-4.713,0-8.533,3.821-8.533,8.533s3.821,8.533,8.533,8.533h8.533v42.667
		c0,4.713,3.821,8.533,8.533,8.533s8.533-3.821,8.533-8.533V93.867h8.533c4.713,0,8.533-3.821,8.533-8.533
		S318.688,76.8,313.975,76.8z"/>
</g>
<path style="fill:#55606E;" d="M316.673,452.705l-19.765-6.589V409.6c0-4.713-3.821-8.533-8.533-8.533s-8.533,3.821-8.533,8.533
	v36.516l-19.765,6.589c-4.412,1.47-6.867,6.383-5.397,10.794c1.47,4.412,6.383,6.866,10.794,5.397l22.901-7.634l22.901,7.634
	c4.636,1.546,9.743-1.246,10.963-5.969C323.345,458.643,320.867,454.102,316.673,452.705z"/>
<path style="fill:#D9DCDF;" d="M416.375,418.133h-256c-4.713,0-8.533-3.821-8.533-8.533V256h273.067v153.6
	C424.908,414.313,421.087,418.133,416.375,418.133z"/>
<rect x="151.84" y="256" style="fill:#C6CACF;" width="273.067" height="25.6"/>
<path style="fill:#7B848F;" d="M433.441,264.533H143.308c-4.713,0-8.533-3.821-8.533-8.533v-34.133c0-4.713,3.821-8.533,8.533-8.533
	h290.133c4.713,0,8.533,3.821,8.533,8.533V256C441.975,260.713,438.154,264.533,433.441,264.533z"/>
<path style="fill:#68727E;" d="M134.775,239.2V256c0,4.713,3.821,8.533,8.533,8.533h290.133c4.713,0,8.533-3.821,8.533-8.533v-16.8
	H134.775z"/>
<path style="fill:#FFCA61;" d="M321.891,341.333c0.399-2.788,0.617-5.635,0.617-8.533c0-32.99-26.743-59.733-59.733-59.733v68.267
	H321.891z"/>
<path style="fill:#4FA9EA;" d="M262.775,341.333v-68.267c-32.99,0-59.733,26.743-59.733,59.733s26.743,59.733,59.733,59.733
	c30.092,0,54.975-22.254,59.117-51.2H262.775z"/>
<g>
	<path style="fill:#8E959F;" d="M365.175,307.2h-25.6c-4.713,0-8.533-3.821-8.533-8.533s3.821-8.533,8.533-8.533h25.6
		c4.713,0,8.533,3.821,8.533,8.533S369.888,307.2,365.175,307.2z"/>
	<path style="fill:#8E959F;" d="M365.175,341.333h-25.6c-4.713,0-8.533-3.821-8.533-8.533s3.821-8.533,8.533-8.533h25.6
		c4.713,0,8.533,3.821,8.533,8.533S369.888,341.333,365.175,341.333z"/>
	<path style="fill:#8E959F;" d="M365.175,375.467h-25.6c-4.713,0-8.533-3.821-8.533-8.533s3.821-8.533,8.533-8.533h25.6
		c4.713,0,8.533,3.821,8.533,8.533S369.888,375.467,365.175,375.467z"/>
</g>
<g>
</g>
<g>
</g>
<g>
</g>
<g>
</g>
<g>
</g>
<g>
</g>
<g>
</g>
<g>
</g>
<g>
</g>
<g>
</g>
<g>
</g>
<g>
</g>
<g>
</g>
<g>
</g>
<g>
</g>
</svg>
