<?xml version="1.0" encoding="iso-8859-1"?>
<!-- Generator: Adobe Illustrator 19.0.0, SVG Export Plug-In . SVG Version: 6.00 Build 0)  -->
<svg version="1.1" id="Layer_1" xmlns="http://www.w3.org/2000/svg" xmlns:xlink="http://www.w3.org/1999/xlink" x="0px" y="0px"
	 viewBox="0 0 512 512" style="enable-background:new 0 0 512 512;" xml:space="preserve">
<path style="fill:#D9DCDF;" d="M469.333,179.2H42.667V59.733c0-4.713,3.821-8.533,8.533-8.533h409.6
	c4.713,0,8.533,3.821,8.533,8.533V179.2z"/>
<rect x="42.667" y="119.467" style="fill:#C6CACF;" width="426.667" height="51.2"/>
<path style="fill:#AAB0B7;" d="M145.067,136.533V102.4c0-9.426-7.641-17.067-17.067-17.067H17.067C7.641,85.333,0,92.974,0,102.4
	v341.333c0,9.426,7.641,17.067,17.067,17.067h477.867c9.426,0,17.067-7.641,17.067-17.067V153.6c0-9.426-7.641-17.067-17.067-17.067
	H145.067z"/>
<path style="fill:#979EA7;" d="M34.133,435.2c-4.713,0-8.533-3.821-8.533-8.533V85.333h-8.533C7.641,85.333,0,92.975,0,102.4
	v341.333c0,9.425,7.641,17.067,17.067,17.067h477.867c9.426,0,17.067-7.642,17.067-17.067V435.2H34.133z"/>
<path style="fill:#FF8C78;" d="M251.41,223.95c-64.194-49.929-114.877,0.589-114.877,57.65c0,57.207,92.854,115.293,111.35,125.835
	c2.19,1.248,4.863,1.248,7.053,0c18.496-10.542,111.997-68.627,111.997-125.835C366.933,224.539,315.604,174.021,251.41,223.95z"/>
<path style="fill:#DB6B5E;" d="M170.667,265.772c0-24.238,9.149-47.29,24.589-61.969c-35.238,3.166-58.722,38.96-58.722,77.797
	c0,57.206,92.854,115.293,111.35,125.835c2.19,1.248,4.863,1.248,7.053,0c4.707-2.684,14.277-8.451,25.924-16.495
	C259.978,378.826,170.667,321.878,170.667,265.772z"/>
<circle style="fill:#FFC5BB;" cx="298.667" cy="256" r="25.6"/>
<circle style="fill:#FFC44F;" cx="349.867" cy="341.333" r="59.733"/>
<path style="fill:#F79F4D;" d="M366.933,384c-32.99,0-59.733-26.743-59.733-59.733c0-12.13,3.626-23.407,9.837-32.829
	c-16.204,10.683-26.903,29.035-26.903,49.895c0,32.99,26.743,59.733,59.733,59.733c20.861,0,39.213-10.7,49.897-26.905
	C390.34,380.374,379.062,384,366.933,384z"/>
<path style="fill:#BF722A;" d="M366.933,332.8H358.4v-8.533c0-4.713-3.821-8.533-8.533-8.533c-4.713,0-8.533,3.821-8.533,8.533
	v8.533H332.8c-4.713,0-8.533,3.821-8.533,8.533c0,4.713,3.821,8.533,8.533,8.533h8.533v8.533c0,4.713,3.821,8.533,8.533,8.533
	c4.713,0,8.533-3.821,8.533-8.533v-8.533h8.533c4.713,0,8.533-3.821,8.533-8.533C375.467,336.621,371.646,332.8,366.933,332.8z"/>
<g>
</g>
<g>
</g>
<g>
</g>
<g>
</g>
<g>
</g>
<g>
</g>
<g>
</g>
<g>
</g>
<g>
</g>
<g>
</g>
<g>
</g>
<g>
</g>
<g>
</g>
<g>
</g>
<g>
</g>
</svg>
