<?xml version="1.0" encoding="iso-8859-1"?>
<!-- Generator: Adobe Illustrator 19.0.0, SVG Export Plug-In . SVG Version: 6.00 Build 0)  -->
<svg version="1.1" id="Layer_1" xmlns="http://www.w3.org/2000/svg" xmlns:xlink="http://www.w3.org/1999/xlink" x="0px" y="0px"
	 viewBox="0 0 512 512" style="enable-background:new 0 0 512 512;" xml:space="preserve">
<path style="fill:#D9DCDF;" d="M469.333,179.2H42.667V59.733c0-4.713,3.821-8.533,8.533-8.533h409.6
	c4.713,0,8.533,3.821,8.533,8.533V179.2z"/>
<rect x="42.667" y="119.467" style="fill:#C6CACF;" width="426.667" height="51.2"/>
<path style="fill:#AAB0B7;" d="M145.067,136.533V102.4c0-9.426-7.641-17.067-17.067-17.067H17.067C7.641,85.333,0,92.974,0,102.4
	v341.333c0,9.426,7.641,17.067,17.067,17.067h477.867c9.426,0,17.067-7.641,17.067-17.067V153.6c0-9.426-7.641-17.067-17.067-17.067
	H145.067z"/>
<path style="fill:#979EA7;" d="M34.133,435.2c-4.713,0-8.533-3.821-8.533-8.533V85.333h-8.533C7.641,85.333,0,92.975,0,102.4
	v341.333c0,9.425,7.641,17.067,17.067,17.067h477.867c9.426,0,17.067-7.642,17.067-17.067V435.2H34.133z"/>
<path style="fill:#DB6B5E;" d="M307.2,204.8c-21.788,0-38.066-8.345-46.541-13.821c-2.842-1.837-6.478-1.837-9.319,0
	c-8.474,5.476-24.752,13.821-46.54,13.821c-6.487,0-25.301-0.74-44.69-12.64c-2.848-1.748-6.51,0.281-6.51,3.621V307.2
	c1.443,10.098,7.213,41.346,34.133,68.267c7.129,7.129,30.033,28.247,66.948,33.937c0.869,0.134,1.767,0.134,2.636,0
	c36.916-5.69,59.821-26.809,66.949-33.937c26.921-26.921,32.69-58.169,34.133-68.267V195.781c0-3.342-3.662-5.37-6.51-3.621
	C332.501,204.06,313.687,204.8,307.2,204.8z"/>
<path style="fill:#FFD072;" d="M256,392.332c-28.442-4.752-47.378-20.112-56.199-28.933c-20.627-20.627-27.104-44.407-29.134-57.462
	v-89.973c14.131,4.959,26.656,5.904,34.133,5.904c21.909,0,39.359-6.942,51.2-13.747c11.843,6.806,29.293,13.747,51.2,13.747
	c7.477,0,20.002-0.945,34.133-5.904v89.973c-2.03,13.055-8.508,36.835-29.134,57.464C303.376,372.22,284.439,387.582,256,392.332z"
	/>
<path style="fill:#68727E;" d="M298.667,281.6c0-23.564-19.103-42.667-42.667-42.667c-23.564,0-42.667,19.103-42.667,42.667
	c0,13.958,6.704,26.35,17.067,34.133V358.4c0,4.713,3.821,8.533,8.533,8.533h34.133c4.713,0,8.533-3.821,8.533-8.533v-42.667
	C291.963,307.95,298.667,295.558,298.667,281.6z"/>
<path style="fill:#7B848F;" d="M256,358.4v-42.667c-10.363-7.785-17.067-20.176-17.067-34.133c0-19.104,12.557-35.274,29.867-40.71
	c-4.041-1.269-8.34-1.956-12.8-1.956c-23.564,0-42.667,19.103-42.667,42.667c0,13.958,6.704,26.35,17.067,34.133V358.4
	c0,4.713,3.821,8.533,8.533,8.533h25.6C259.821,366.933,256,363.113,256,358.4z"/>
<g>
</g>
<g>
</g>
<g>
</g>
<g>
</g>
<g>
</g>
<g>
</g>
<g>
</g>
<g>
</g>
<g>
</g>
<g>
</g>
<g>
</g>
<g>
</g>
<g>
</g>
<g>
</g>
<g>
</g>
</svg>
