<?xml version="1.0" encoding="iso-8859-1"?>
<!-- Generator: Adobe Illustrator 19.0.0, SVG Export Plug-In . SVG Version: 6.00 Build 0)  -->
<svg version="1.1" id="Layer_1" xmlns="http://www.w3.org/2000/svg" xmlns:xlink="http://www.w3.org/1999/xlink" x="0px" y="0px"
	 viewBox="0 0 512 512" style="enable-background:new 0 0 512 512;" xml:space="preserve">
<path style="fill:#ECEDEF;" d="M100.641,0c-14.139,0-25.6,11.461-25.6,25.6v460.8c0,14.139,11.461,25.6,25.6,25.6h375.467
	c14.139,0,25.6-11.461,25.6-25.6V85.333L416.375,0H100.641z"/>
<path style="fill:#D9DCDF;" d="M441.975,85.333h59.733L416.375,0v59.733C416.375,73.872,427.836,85.333,441.975,85.333z"/>
<path style="fill:#C6CACF;" d="M399.308,42.667H75.041v153.6h324.267c4.713,0,8.533-3.821,8.533-8.533V51.2
	C407.841,46.487,404.02,42.667,399.308,42.667z"/>
<path style="fill:#FFC44F;" d="M382.241,179.2H18.843c-7.602,0-11.41-9.191-6.034-14.567L75.041,102.4L12.809,40.167
	C7.433,34.791,11.241,25.6,18.843,25.6h363.398c4.713,0,8.533,3.821,8.533,8.533v136.533
	C390.775,175.379,386.954,179.2,382.241,179.2z"/>
<g>
	<path style="fill:#FFFFFF;" d="M228.64,145.069c-3.573,0-6.902-2.261-8.095-5.837l-8.971-26.913l-8.971,26.913
		c-1.491,4.47-6.321,6.887-10.795,5.397c-4.47-1.49-6.886-6.323-5.397-10.794l17.067-51.2c1.162-3.485,4.422-5.835,8.096-5.835
		s6.934,2.351,8.096,5.835l17.067,51.2C238.547,139.268,234.382,145.069,228.64,145.069z"/>
	<path style="fill:#FFFFFF;" d="M254.241,145.067c-4.713,0-8.533-3.821-8.533-8.533v-51.2c0-4.713,3.821-8.533,8.533-8.533
		s8.533,3.821,8.533,8.533v51.2C262.775,141.246,258.954,145.067,254.241,145.067z"/>
</g>
<g>
	<path style="fill:#A1A7AF;" d="M416.375,213.333h-34.133c-4.713,0-8.533,3.821-8.533,8.533V256c0,4.713,3.821,8.533,8.533,8.533
		h8.169c-3.78,45.555-37.541,83.595-83.072,92.116c-4.633,0.867-7.684,5.325-6.818,9.957c0.768,4.102,4.351,6.965,8.378,6.965
		c0.521,0,1.049-0.048,1.579-0.147c53.601-10.031,93.211-55.118,97.033-108.891h8.864c4.713,0,8.533-3.821,8.533-8.533v-34.133
		C424.908,217.154,421.087,213.333,416.375,213.333z M407.841,247.467h-17.067V230.4h17.067V247.467z"/>
	<path style="fill:#A1A7AF;" d="M270.249,356.802c-46.011-8.213-80.121-46.326-83.91-92.269h8.17c4.713,0,8.533-3.821,8.533-8.533
		v-34.133c0-4.713-3.821-8.533-8.533-8.533h-34.133c-4.713,0-8.533,3.821-8.533,8.533V256c0,4.713,3.821,8.533,8.533,8.533h8.837
		c3.828,54.233,43.872,99.401,98.036,109.07c0.508,0.091,1.012,0.134,1.51,0.134c4.055,0,7.652-2.903,8.39-7.036
		C277.978,362.063,274.889,357.63,270.249,356.802z M168.908,230.4h17.067v17.067h-17.067V230.4z"/>
</g>
<path style="fill:#68727E;" d="M382.241,358.4h-69.734c-3.522-9.932-13.008-17.067-24.132-17.067
	c-11.124,0-20.609,7.135-24.132,17.067h-69.734c-4.713,0-8.533,3.821-8.533,8.533s3.821,8.533,8.533,8.533h69.734
	c3.522,9.932,13.008,17.067,24.132,17.067c11.124,0,20.609-7.135,24.132-17.067h69.734c4.713,0,8.533-3.821,8.533-8.533
	S386.954,358.4,382.241,358.4z M288.375,375.467c-4.705,0-8.533-3.828-8.533-8.533s3.828-8.533,8.533-8.533s8.533,3.828,8.533,8.533
	S293.08,375.467,288.375,375.467z"/>
<path style="fill:#DB6B5E;" d="M329.549,448.236l-11.873-44.31c-1.536-5.73,3.709-10.975,9.439-9.439l44.31,11.873
	c7.264,1.947,7.725,12.079,0.668,14.677l-20.369,7.498l-7.498,20.369C341.628,455.961,331.496,455.5,329.549,448.236z"/>
<g>
</g>
<g>
</g>
<g>
</g>
<g>
</g>
<g>
</g>
<g>
</g>
<g>
</g>
<g>
</g>
<g>
</g>
<g>
</g>
<g>
</g>
<g>
</g>
<g>
</g>
<g>
</g>
<g>
</g>
</svg>
