<?xml version="1.0" encoding="iso-8859-1"?>
<!-- Generator: Adobe Illustrator 19.0.0, SVG Export Plug-In . SVG Version: 6.00 Build 0)  -->
<svg version="1.1" id="Layer_1" xmlns="http://www.w3.org/2000/svg" xmlns:xlink="http://www.w3.org/1999/xlink" x="0px" y="0px"
	 viewBox="0 0 512 512" style="enable-background:new 0 0 512 512;" xml:space="preserve">
<path style="fill:#D9DCDF;" d="M469.333,179.2H42.667V59.733c0-4.713,3.821-8.533,8.533-8.533h409.6
	c4.713,0,8.533,3.821,8.533,8.533V179.2z"/>
<rect x="42.667" y="119.467" style="fill:#C6CACF;" width="426.667" height="51.2"/>
<path style="fill:#AAB0B7;" d="M145.067,136.533V102.4c0-9.426-7.641-17.067-17.067-17.067H17.067C7.641,85.333,0,92.974,0,102.4
	v341.333c0,9.426,7.641,17.067,17.067,17.067h477.867c9.426,0,17.067-7.641,17.067-17.067V153.6c0-9.426-7.641-17.067-17.067-17.067
	H145.067z"/>
<path style="fill:#979EA7;" d="M34.133,435.2c-4.713,0-8.533-3.821-8.533-8.533V85.333h-8.533C7.641,85.333,0,92.975,0,102.4
	v341.333c0,9.425,7.641,17.067,17.067,17.067h477.867c9.426,0,17.067-7.642,17.067-17.067V435.2H34.133z"/>
<path style="fill:#FFC44F;" d="M334.831,335.375H307.2v-70.842c0-4.713-3.821-8.533-8.533-8.533h-85.333
	c-4.713,0-8.533,3.821-8.533,8.533v70.842h-27.631c-7.981,0-11.595,9.98-5.462,15.089l78.831,65.692
	c3.165,2.637,7.761,2.637,10.926,0l78.831-65.692C346.425,345.354,342.812,335.375,334.831,335.375z"/>
<g>
	<path style="fill:#F79F4D;" d="M221.867,358.4V256h-8.533c-4.713,0-8.533,3.821-8.533,8.533v70.842h-27.631
		c-7.981,0-11.595,9.98-5.462,15.089l78.831,65.692c3.165,2.637,7.761,2.637,10.926,0l13.527-11.273L221.867,358.4z"/>
	<path style="fill:#F79F4D;" d="M298.667,238.933h-85.333c-4.713,0-8.533-3.821-8.533-8.533c0-4.713,3.821-8.533,8.533-8.533h85.333
		c4.713,0,8.533,3.821,8.533,8.533C307.2,235.113,303.379,238.933,298.667,238.933z"/>
	<path style="fill:#F79F4D;" d="M298.667,204.8h-85.333c-4.713,0-8.533-3.821-8.533-8.533c0-4.713,3.821-8.533,8.533-8.533h85.333
		c4.713,0,8.533,3.821,8.533,8.533C307.2,200.979,303.379,204.8,298.667,204.8z"/>
</g>
<g>
</g>
<g>
</g>
<g>
</g>
<g>
</g>
<g>
</g>
<g>
</g>
<g>
</g>
<g>
</g>
<g>
</g>
<g>
</g>
<g>
</g>
<g>
</g>
<g>
</g>
<g>
</g>
<g>
</g>
</svg>
