<?xml version="1.0" encoding="iso-8859-1"?>
<!-- Generator: Adobe Illustrator 19.0.0, SVG Export Plug-In . SVG Version: 6.00 Build 0)  -->
<svg version="1.1" id="Layer_1" xmlns="http://www.w3.org/2000/svg" xmlns:xlink="http://www.w3.org/1999/xlink" x="0px" y="0px"
	 viewBox="0 0 512 512" style="enable-background:new 0 0 512 512;" xml:space="preserve">
<path style="fill:#ECEDEF;" d="M100.641,0c-14.139,0-25.6,11.461-25.6,25.6v460.8c0,14.139,11.461,25.6,25.6,25.6h375.467
	c14.139,0,25.6-11.461,25.6-25.6V85.333L416.375,0H100.641z"/>
<path style="fill:#D9DCDF;" d="M441.975,85.333h59.733L416.375,0v59.733C416.375,73.872,427.836,85.333,441.975,85.333z"/>
<path style="fill:#C6CACF;" d="M399.308,42.667H75.041v153.6h324.267c4.713,0,8.533-3.821,8.533-8.533V51.2
	C407.841,46.487,404.02,42.667,399.308,42.667z"/>
<path style="fill:#F79F4D;" d="M382.241,179.2H18.843c-7.602,0-11.41-9.191-6.034-14.567L75.041,102.4L12.809,40.167
	C7.433,34.791,11.241,25.6,18.843,25.6h363.398c4.713,0,8.533,3.821,8.533,8.533v136.533
	C390.775,175.379,386.954,179.2,382.241,179.2z"/>
<g>
	<path style="fill:#FFFFFF;" d="M296.908,145.067c-3.673,0-6.934-2.351-8.096-5.835l-17.067-51.2
		c-1.47-4.411,0.986-9.324,5.397-10.794c4.414-1.471,9.323,0.985,10.795,5.397l8.971,26.913l8.971-26.913
		c1.472-4.411,6.383-6.866,10.795-5.397c4.412,1.47,6.866,6.383,5.397,10.794l-17.067,51.2
		C303.842,142.716,300.581,145.067,296.908,145.067z"/>
	<path style="fill:#FFFFFF;" d="M262.773,145.069c-3.573,0-6.902-2.261-8.095-5.837l-8.971-26.913l-8.971,26.913
		c-1.49,4.47-6.322,6.887-10.795,5.397c-4.47-1.49-6.886-6.323-5.397-10.794l17.067-51.2c1.162-3.485,4.422-5.835,8.096-5.835
		s6.934,2.351,8.096,5.835l17.067,51.2C272.681,139.268,268.515,145.069,262.773,145.069z"/>
	<path style="fill:#FFFFFF;" d="M194.506,145.067c-3.214,0-6.178-1.812-7.63-4.717l-9.435-18.868l-9.435,18.868
		c-3.329,6.66-13.375,5.94-15.728-1.118l-17.067-51.2c-1.47-4.411,0.986-9.324,5.397-10.794c4.413-1.471,9.323,0.985,10.795,5.397
		l10.553,31.655l7.853-15.707c3.084-6.167,12.18-6.169,15.265,0l7.853,15.707l10.553-31.655c1.472-4.411,6.383-6.866,10.795-5.397
		c4.412,1.47,6.866,6.383,5.397,10.794l-17.067,51.2C201.455,142.678,198.139,145.067,194.506,145.067z"/>
</g>
<path style="fill:#DB6B5E;" d="M279.839,452.267c-4.191,0-7.771-3.049-8.427-7.202l-17.891-113.315l-16.492,87.956
	c-0.736,3.926-4.243,6.907-8.245,6.96c-3.999,0.053-7.603-2.774-8.471-6.682l-13.042-58.689l-14.468,19.292
	c-1.613,2.149-4.142,3.413-6.827,3.413h-42.667c-4.713,0-8.533-3.821-8.533-8.533c0-4.713,3.821-8.533,8.533-8.533h38.4l23.04-30.72
	c4.29-5.721,13.61-3.697,15.157,3.268l8.028,36.126l17.921-95.581c0.758-4.041,4.287-6.961,8.386-6.961c0.041,0,0.082,0,0.124,0.001
	c4.153,0.06,7.659,3.1,8.306,7.201l16.189,102.527l18.114-144.922c0.527-4.213,4.211-7.47,8.457-7.475
	c4.236-0.005,7.925,3.228,8.473,7.429l19.185,147.09l15.21-70.975c0.843-3.936,4.453-6.806,8.477-6.745s7.542,3.046,8.262,7.006
	l12.487,68.679l5.618-11.236c1.445-2.891,4.4-4.717,7.632-4.717h42.667c4.713,0,8.533,3.821,8.533,8.533s-3.821,8.533-8.533,8.533
	h-37.393l-14.708,29.417c-1.674,3.347-5.449,5.242-9.133,4.585c-3.47-0.619-6.265-3.407-6.895-6.874l-9.357-51.465l-16.57,77.326
	c-0.875,4.079-4.677,6.971-8.838,6.73c-4.043-0.235-7.443-3.397-7.967-7.414L305.621,306.29l-17.312,138.501
	C287.781,449.01,284.09,452.267,279.839,452.267z"/>
<g>
</g>
<g>
</g>
<g>
</g>
<g>
</g>
<g>
</g>
<g>
</g>
<g>
</g>
<g>
</g>
<g>
</g>
<g>
</g>
<g>
</g>
<g>
</g>
<g>
</g>
<g>
</g>
<g>
</g>
</svg>
