<?xml version="1.0" encoding="iso-8859-1"?>
<!-- Generator: Adobe Illustrator 19.0.0, SVG Export Plug-In . SVG Version: 6.00 Build 0)  -->
<svg version="1.1" id="Layer_1" xmlns="http://www.w3.org/2000/svg" xmlns:xlink="http://www.w3.org/1999/xlink" x="0px" y="0px"
	 viewBox="0 0 512 512" style="enable-background:new 0 0 512 512;" xml:space="preserve">
<path style="fill:#ECEDEF;" d="M100.641,0c-14.139,0-25.6,11.461-25.6,25.6v460.8c0,14.139,11.461,25.6,25.6,25.6h375.467
	c14.139,0,25.6-11.461,25.6-25.6V85.333L416.375,0H100.641z"/>
<path style="fill:#D9DCDF;" d="M441.975,85.333h59.733L416.375,0v59.733C416.375,73.872,427.836,85.333,441.975,85.333z"/>
<path style="fill:#C6CACF;" d="M399.308,42.667H75.041v153.6h324.267c4.713,0,8.533-3.821,8.533-8.533V51.2
	C407.841,46.487,404.02,42.667,399.308,42.667z"/>
<path style="fill:#427FC9;" d="M382.241,179.2H18.843c-7.602,0-11.41-9.191-6.034-14.567L75.041,102.4L12.809,40.167
	C7.433,34.791,11.241,25.6,18.843,25.6h363.398c4.713,0,8.533,3.821,8.533,8.533v136.533
	C390.775,175.379,386.954,179.2,382.241,179.2z"/>
<path style="fill:#C5E8FA;" d="M399.308,469.333H177.441c-9.426,0-17.067-7.641-17.067-17.067V238.933
	c0-9.426,7.641-17.067,17.067-17.067h221.867c9.426,0,17.067,7.641,17.067,17.067v213.333
	C416.375,461.693,408.734,469.333,399.308,469.333z"/>
<path style="fill:#97CCE8;" d="M177.441,443.733V221.867c-9.426,0-17.067,7.641-17.067,17.067v213.333
	c0,9.426,7.641,17.067,17.067,17.067h221.867c9.426,0,17.067-7.641,17.067-17.067h-230.4
	C181.262,452.267,177.441,448.446,177.441,443.733z"/>
<g>
	<path style="fill:#3C9FE8;" d="M356.638,426.667c-3.195,0-6.169-1.797-7.629-4.718l-9.435-18.868l-9.435,18.868
		c-1.682,3.364-5.498,5.262-9.196,4.573c-3.487-0.65-6.271-3.488-6.853-6.987l-8.533-51.2c-0.765-4.587,2.429-9.055,7.014-9.82
		c4.585-0.765,9.056,2.431,9.82,7.014l4.22,25.315l5.331-10.662c3.084-6.167,12.181-6.169,15.265,0l5.331,10.662l4.22-25.315
		c0.765-4.585,5.234-7.778,9.82-7.014c4.587,0.764,7.779,5.234,7.014,9.82l-8.533,51.2
		C364.381,423.601,360.76,426.667,356.638,426.667z"/>
	<path style="fill:#3C9FE8;" d="M365.175,273.067h-153.6c-4.713,0-8.533-3.821-8.533-8.533c0-4.713,3.821-8.533,8.533-8.533h153.6
		c4.713,0,8.533,3.821,8.533,8.533C373.708,269.246,369.888,273.067,365.175,273.067z"/>
	<path style="fill:#3C9FE8;" d="M365.175,324.267h-153.6c-4.713,0-8.533-3.821-8.533-8.533c0-4.713,3.821-8.533,8.533-8.533h153.6
		c4.713,0,8.533,3.821,8.533,8.533C373.708,320.446,369.888,324.267,365.175,324.267z"/>
	<path style="fill:#3C9FE8;" d="M279.841,375.467h-68.267c-4.713,0-8.533-3.821-8.533-8.533s3.821-8.533,8.533-8.533h68.267
		c4.713,0,8.533,3.821,8.533,8.533S284.555,375.467,279.841,375.467z"/>
	<path style="fill:#3C9FE8;" d="M279.841,426.667h-68.267c-4.713,0-8.533-3.821-8.533-8.533s3.821-8.533,8.533-8.533h68.267
		c4.713,0,8.533,3.821,8.533,8.533S284.555,426.667,279.841,426.667z"/>
</g>
<g>
	<path style="fill:#FFFFFF;" d="M305.441,145.067h-25.6c-4.713,0-8.533-3.821-8.533-8.533v-51.2c0-4.713,3.821-8.533,8.533-8.533
		h25.6c4.713,0,8.533,3.821,8.533,8.533s-3.821,8.533-8.533,8.533h-17.067V128h17.067c4.713,0,8.533,3.821,8.533,8.533
		S310.155,145.067,305.441,145.067z"/>
	<path style="fill:#FFFFFF;" d="M254.241,145.067h-34.133c-4.713,0-8.533-3.821-8.533-8.533v-51.2c0-4.713,3.821-8.533,8.533-8.533
		h34.133c4.713,0,8.533,3.821,8.533,8.533v51.2C262.775,141.246,258.955,145.067,254.241,145.067z M228.641,128h17.067V93.867
		h-17.067V128z"/>
	<path style="fill:#FFFFFF;" d="M194.508,145.067c0,0-41.113,0-42.667,0c-4.713,0-8.533-3.821-8.533-8.533v-51.2
		c0-4.713,3.821-8.533,8.533-8.533h25.6c14.116,0,25.6,11.484,25.6,25.6v34.133C203.041,141.246,199.221,145.067,194.508,145.067z
		 M160.375,128h25.6v-25.6c0-4.705-3.828-8.533-8.533-8.533h-17.067V128z"/>
</g>
<g>
</g>
<g>
</g>
<g>
</g>
<g>
</g>
<g>
</g>
<g>
</g>
<g>
</g>
<g>
</g>
<g>
</g>
<g>
</g>
<g>
</g>
<g>
</g>
<g>
</g>
<g>
</g>
<g>
</g>
</svg>
