<?xml version="1.0" encoding="iso-8859-1"?>
<!-- Generator: Adobe Illustrator 19.0.0, SVG Export Plug-In . SVG Version: 6.00 Build 0)  -->
<svg version="1.1" id="Layer_1" xmlns="http://www.w3.org/2000/svg" xmlns:xlink="http://www.w3.org/1999/xlink" x="0px" y="0px"
	 viewBox="0 0 512 512" style="enable-background:new 0 0 512 512;" xml:space="preserve">
<path style="fill:#ECEDEF;" d="M416.375,0H100.641c-14.139,0-25.6,11.461-25.6,25.6v460.8c0,14.139,11.461,25.6,25.6,25.6h375.467
	c14.139,0,25.6-11.461,25.6-25.6V85.333L416.375,0z"/>
<path style="fill:#D9DCDF;" d="M441.975,85.333h59.733L416.375,0v59.733C416.375,73.872,427.836,85.333,441.975,85.333z"/>
<path style="fill:#C6CACF;" d="M399.308,42.667H75.041v153.6h324.267c4.713,0,8.533-3.821,8.533-8.533V51.2
	C407.841,46.487,404.02,42.667,399.308,42.667z"/>
<path style="fill:#7B848F;" d="M382.241,179.2H18.843c-7.602,0-11.41-9.191-6.034-14.567L75.041,102.4L12.809,40.167
	C7.433,34.791,11.241,25.6,18.843,25.6h363.398c4.713,0,8.533,3.821,8.533,8.533v136.533
	C390.775,175.379,386.954,179.2,382.241,179.2z"/>
<g>
	<path style="fill:#FFFFFF;" d="M185.975,93.867c4.713,0,8.533-3.821,8.533-8.533s-3.821-8.533-8.533-8.533h-34.133
		c-4.713,0-8.533,3.821-8.533,8.533v51.2c0,4.713,3.821,8.533,8.533,8.533h34.133c4.713,0,8.533-3.821,8.533-8.533
		S190.687,128,185.975,128h-25.6v-8.533h8.533c4.713,0,8.533-3.821,8.533-8.533s-3.821-8.533-8.533-8.533h-8.533v-8.533H185.975z"/>
	<path style="fill:#FFFFFF;" d="M265.052,77.11c-3.695-1.027-7.621,0.544-9.595,3.833l-18.283,30.471l-18.283-30.471
		c-1.973-3.289-5.902-4.859-9.595-3.833c-3.697,1.023-6.256,4.388-6.256,8.223v51.2c0,4.713,3.821,8.533,8.533,8.533
		c4.713,0,8.533-3.821,8.533-8.533v-20.393l9.749,16.25c3.255,5.424,11.379,5.424,14.635,0l9.749-16.25v20.393
		c0,4.713,3.821,8.533,8.533,8.533c4.713,0,8.533-3.821,8.533-8.533v-51.2C271.308,81.498,268.749,78.133,265.052,77.11z"/>
	<path style="fill:#FFFFFF;" d="M313.975,128h-17.067V85.333c0-4.713-3.821-8.533-8.533-8.533s-8.533,3.821-8.533,8.533v51.2
		c0,4.713,3.821,8.533,8.533,8.533h25.6c4.713,0,8.533-3.821,8.533-8.533S318.688,128,313.975,128z"/>
</g>
<path style="fill:#FFC44F;" d="M407.841,256H168.908c-4.713,0-8.533,3.821-8.533,8.533v162.133c0,4.713,3.821,8.533,8.533,8.533
	h238.933c4.713,0,8.533-3.821,8.533-8.533V264.533C416.375,259.821,412.554,256,407.841,256z"/>
<path style="fill:#F79F4D;" d="M288.375,320.822l-128,85.333v20.511c0,4.713,3.821,8.533,8.533,8.533h238.933
	c4.713,0,8.533-3.821,8.533-8.533v-20.511L288.375,320.822z"/>
<path style="fill:#FFC44F;" d="M168.908,435.2h238.933c4.713,0,8.533-3.821,8.533-8.533l-128-85.333l-128,85.333
	C160.375,431.379,164.195,435.2,168.908,435.2z"/>
<path style="fill:#FFD791;" d="M407.841,256H168.908c-4.713,0-8.533,3.821-8.533,8.533l124.45,82.966c2.149,1.434,4.95,1.434,7.1,0
	l124.45-82.966C416.375,259.821,412.554,256,407.841,256z"/>
<g>
</g>
<g>
</g>
<g>
</g>
<g>
</g>
<g>
</g>
<g>
</g>
<g>
</g>
<g>
</g>
<g>
</g>
<g>
</g>
<g>
</g>
<g>
</g>
<g>
</g>
<g>
</g>
<g>
</g>
</svg>
