<?xml version="1.0" encoding="iso-8859-1"?>
<!-- Generator: Adobe Illustrator 19.0.0, SVG Export Plug-In . SVG Version: 6.00 Build 0)  -->
<svg version="1.1" id="Layer_1" xmlns="http://www.w3.org/2000/svg" xmlns:xlink="http://www.w3.org/1999/xlink" x="0px" y="0px"
	 viewBox="0 0 512 512" style="enable-background:new 0 0 512 512;" xml:space="preserve">
<path style="fill:#ECEDEF;" d="M100.641,0c-14.139,0-25.6,11.461-25.6,25.6v460.8c0,14.139,11.461,25.6,25.6,25.6h375.467
	c14.139,0,25.6-11.461,25.6-25.6V85.333L416.375,0H100.641z"/>
<path style="fill:#D9DCDF;" d="M441.975,85.333h59.733L416.375,0v59.733C416.375,73.872,427.836,85.333,441.975,85.333z"/>
<path style="fill:#C6CACF;" d="M399.308,42.667H75.041v153.6h324.267c4.713,0,8.533-3.821,8.533-8.533V51.2
	C407.841,46.487,404.02,42.667,399.308,42.667z"/>
<path style="fill:#FFC44F;" d="M382.241,179.2H18.843c-7.602,0-11.41-9.191-6.034-14.567L75.041,102.4L12.809,40.167
	C7.433,34.791,11.241,25.6,18.843,25.6h363.398c4.713,0,8.533,3.821,8.533,8.533v136.533
	C390.775,175.379,386.954,179.2,382.241,179.2z"/>
<circle style="fill:#FF8C78;" cx="348.107" cy="290.133" r="68.267"/>
<circle style="fill:#DB6B5E;" cx="348.107" cy="290.133" r="42.667"/>
<path style="fill:#C4DF64;" d="M401.562,469.333H160.375c-4.713,0-8.533-3.821-8.533-8.533V257.298
	c0-7.26,8.487-11.203,14.036-6.522l241.187,203.502C413.145,459.408,409.517,469.333,401.562,469.333z"/>
<path style="fill:#8AC451;" d="M407.065,454.278l-12.497-10.545h-212.86c-2.356,0-4.267-1.91-4.267-4.267V260.533l-11.564-9.757
	c-5.549-4.682-14.036-0.737-14.036,6.522V460.8c0,4.713,3.821,8.533,8.533,8.533h241.187
	C409.517,469.333,413.145,459.408,407.065,454.278z"/>
<g>
	<path style="fill:#3C9FE8;" d="M254.241,273.067h-34.133c-4.713,0-8.533-3.821-8.533-8.533V230.4c0-4.713,3.821-8.533,8.533-8.533
		h34.133c4.713,0,8.533,3.821,8.533,8.533v34.133C262.775,269.246,258.954,273.067,254.241,273.067z"/>
	<path style="fill:#3C9FE8;" d="M424.908,418.133h-34.133c-4.713,0-8.533-3.821-8.533-8.533v-34.133
		c0-4.713,3.821-8.533,8.533-8.533h34.133c4.713,0,8.533,3.821,8.533,8.533V409.6C433.441,414.313,429.62,418.133,424.908,418.133z"
		/>
</g>
<g>
	<path style="fill:#FFFFFF;" d="M194.508,93.867c4.713,0,8.533-3.821,8.533-8.533s-3.821-8.533-8.533-8.533h-34.133
		c-4.713,0-8.533,3.821-8.533,8.533v51.2c0,4.713,3.821,8.533,8.533,8.533h34.133c4.713,0,8.533-3.821,8.533-8.533v-25.6
		c0-4.713-3.821-8.533-8.533-8.533h-8.533c-4.713,0-8.533,3.821-8.533,8.533s3.821,8.533,8.533,8.533V128h-17.067V93.867H194.508z"
		/>
	<path style="fill:#FFFFFF;" d="M228.641,76.8c-4.713,0-8.533,3.821-8.533,8.533v51.2c0,4.713,3.821,8.533,8.533,8.533
		c4.713,0,8.533-3.821,8.533-8.533v-51.2C237.175,80.621,233.355,76.8,228.641,76.8z"/>
	<path style="fill:#FFFFFF;" d="M288.375,102.4h-17.067v-8.533h17.067c4.713,0,8.533-3.821,8.533-8.533s-3.821-8.533-8.533-8.533
		h-25.6c-4.713,0-8.533,3.821-8.533,8.533v51.2c0,4.713,3.821,8.533,8.533,8.533s8.533-3.821,8.533-8.533v-17.067h17.067
		c4.713,0,8.533-3.821,8.533-8.533S293.088,102.4,288.375,102.4z"/>
</g>
<g>
</g>
<g>
</g>
<g>
</g>
<g>
</g>
<g>
</g>
<g>
</g>
<g>
</g>
<g>
</g>
<g>
</g>
<g>
</g>
<g>
</g>
<g>
</g>
<g>
</g>
<g>
</g>
<g>
</g>
</svg>
