<?xml version="1.0" encoding="iso-8859-1"?>
<!-- Generator: Adobe Illustrator 19.0.0, SVG Export Plug-In . SVG Version: 6.00 Build 0)  -->
<svg version="1.1" id="Layer_1" xmlns="http://www.w3.org/2000/svg" xmlns:xlink="http://www.w3.org/1999/xlink" x="0px" y="0px"
	 viewBox="0 0 512 512" style="enable-background:new 0 0 512 512;" xml:space="preserve">
<path style="fill:#ECEDEF;" d="M100.641,0c-14.139,0-25.6,11.461-25.6,25.6v460.8c0,14.139,11.461,25.6,25.6,25.6h375.467
	c14.139,0,25.6-11.461,25.6-25.6V85.333L416.375,0H100.641z"/>
<path style="fill:#D9DCDF;" d="M441.975,85.333h59.733L416.375,0v59.733C416.375,73.872,427.836,85.333,441.975,85.333z"/>
<path style="fill:#C6CACF;" d="M399.308,42.667H75.041v153.6h324.267c4.713,0,8.533-3.821,8.533-8.533V51.2
	C407.841,46.487,404.02,42.667,399.308,42.667z"/>
<path style="fill:#F79F4D;" d="M382.241,179.2H18.843c-7.602,0-11.41-9.191-6.034-14.567L75.041,102.4L12.809,40.167
	C7.433,34.791,11.241,25.6,18.843,25.6h363.398c4.713,0,8.533,3.821,8.533,8.533v136.533
	C390.775,175.379,386.954,179.2,382.241,179.2z"/>
<g>
	<path style="fill:#FFFFFF;" d="M177.441,145.067h-34.133c-4.713,0-8.533-3.821-8.533-8.533v-51.2c0-4.713,3.821-8.533,8.533-8.533
		h17.067c14.115,0,25.6,11.485,25.6,25.6v34.133C185.975,141.246,182.154,145.067,177.441,145.067z M151.841,128h17.067v-25.6
		c0-4.705-3.828-8.533-8.533-8.533h-8.533V128z"/>
	<path style="fill:#FFFFFF;" d="M245.705,145.067c-3.194,0.001-6.169-1.796-7.629-4.717l-9.435-18.868l-9.435,18.868
		c-1.683,3.365-5.495,5.261-9.196,4.573c-3.487-0.649-6.271-3.488-6.854-6.986l-8.533-51.2c-0.774-4.649,2.366-9.045,7.014-9.821
		c4.647-0.77,9.045,2.366,9.821,7.014l4.219,25.315l5.331-10.662c3.085-6.166,12.179-6.167,15.265,0l5.331,10.662l4.219-25.315
		c0.777-4.649,5.18-7.786,9.821-7.014c4.649,0.775,7.789,5.172,7.014,9.821l-8.533,51.2
		C253.448,142.002,249.826,145.067,245.705,145.067z"/>
	<path style="fill:#FFFFFF;" d="M313.975,145.067h-34.133c-4.713,0-8.533-3.821-8.533-8.533v-51.2c0-4.713,3.821-8.533,8.533-8.533
		h34.133c4.713,0,8.533,3.821,8.533,8.533s-3.821,8.533-8.533,8.533h-25.6V128h17.067v-8.533c-4.713,0-8.533-3.821-8.533-8.533
		s3.821-8.533,8.533-8.533h8.533c4.713,0,8.533,3.821,8.533,8.533v25.6C322.508,141.246,318.687,145.067,313.975,145.067z"/>
</g>
<path style="fill:#8AC451;" d="M356.641,273.067H220.108c-4.713,0-8.533,3.821-8.533,8.533v136.533c0,4.713,3.821,8.533,8.533,8.533
	h136.533c4.713,0,8.533-3.821,8.533-8.533V281.6C365.175,276.887,361.354,273.067,356.641,273.067z M348.108,341.333h-51.2v-51.2
	h51.2V341.333z M279.841,290.133v51.2h-51.2v-51.2H279.841z M228.641,358.4h51.2v51.2h-51.2L228.641,358.4L228.641,358.4z
	 M296.908,409.6v-51.2h51.2v51.2H296.908z"/>
<g>
	<path style="fill:#68727E;" d="M407.841,290.133h-25.6c-4.713,0-8.533-3.821-8.533-8.533c0-4.713,3.821-8.533,8.533-8.533h25.6
		c4.713,0,8.533,3.821,8.533,8.533C416.375,286.313,412.554,290.133,407.841,290.133z"/>
	<path style="fill:#68727E;" d="M356.641,264.533c-4.713,0-8.533-3.821-8.533-8.533v-25.6c0-4.713,3.821-8.533,8.533-8.533
		s8.533,3.821,8.533,8.533V256C365.175,260.713,361.354,264.533,356.641,264.533z"/>
	<path style="fill:#68727E;" d="M220.108,264.533c-4.713,0-8.533-3.821-8.533-8.533v-25.6c0-4.713,3.821-8.533,8.533-8.533
		c4.713,0,8.533,3.821,8.533,8.533V256C228.641,260.713,224.82,264.533,220.108,264.533z"/>
	<path style="fill:#68727E;" d="M194.508,290.133h-25.6c-4.713,0-8.533-3.821-8.533-8.533c0-4.713,3.821-8.533,8.533-8.533h25.6
		c4.713,0,8.533,3.821,8.533,8.533C203.041,286.313,199.22,290.133,194.508,290.133z"/>
	<path style="fill:#68727E;" d="M356.641,477.867c-4.713,0-8.533-3.821-8.533-8.533v-25.6c0-4.713,3.821-8.533,8.533-8.533
		s8.533,3.821,8.533,8.533v25.6C365.175,474.046,361.354,477.867,356.641,477.867z"/>
	<path style="fill:#68727E;" d="M407.841,426.667h-25.6c-4.713,0-8.533-3.821-8.533-8.533s3.821-8.533,8.533-8.533h25.6
		c4.713,0,8.533,3.821,8.533,8.533S412.554,426.667,407.841,426.667z"/>
	<path style="fill:#68727E;" d="M194.508,426.667h-25.6c-4.713,0-8.533-3.821-8.533-8.533s3.821-8.533,8.533-8.533h25.6
		c4.713,0,8.533,3.821,8.533,8.533S199.22,426.667,194.508,426.667z"/>
	<path style="fill:#68727E;" d="M220.108,477.867c-4.713,0-8.533-3.821-8.533-8.533v-25.6c0-4.713,3.821-8.533,8.533-8.533
		c4.713,0,8.533,3.821,8.533,8.533v25.6C228.641,474.046,224.82,477.867,220.108,477.867z"/>
</g>
<g>
</g>
<g>
</g>
<g>
</g>
<g>
</g>
<g>
</g>
<g>
</g>
<g>
</g>
<g>
</g>
<g>
</g>
<g>
</g>
<g>
</g>
<g>
</g>
<g>
</g>
<g>
</g>
<g>
</g>
</svg>
