<?xml version="1.0" encoding="iso-8859-1"?>
<!-- Generator: Adobe Illustrator 19.0.0, SVG Export Plug-In . SVG Version: 6.00 Build 0)  -->
<svg version="1.1" id="Layer_1" xmlns="http://www.w3.org/2000/svg" xmlns:xlink="http://www.w3.org/1999/xlink" x="0px" y="0px"
	 viewBox="0 0 512 512" style="enable-background:new 0 0 512 512;" xml:space="preserve">
<path style="fill:#D9DCDF;" d="M469.333,179.2H42.667V59.733c0-4.713,3.821-8.533,8.533-8.533h409.6
	c4.713,0,8.533,3.821,8.533,8.533V179.2z"/>
<rect x="42.667" y="119.467" style="fill:#C6CACF;" width="426.667" height="51.2"/>
<path style="fill:#AAB0B7;" d="M145.067,136.533V102.4c0-9.426-7.641-17.067-17.067-17.067H17.067C7.641,85.333,0,92.974,0,102.4
	v341.333c0,9.426,7.641,17.067,17.067,17.067h477.867c9.426,0,17.067-7.641,17.067-17.067V153.6c0-9.426-7.641-17.067-17.067-17.067
	H145.067z"/>
<path style="fill:#979EA7;" d="M34.133,435.2c-4.713,0-8.533-3.821-8.533-8.533V85.333h-8.533C7.641,85.333,0,92.975,0,102.4
	v341.333c0,9.425,7.641,17.067,17.067,17.067h477.867c9.426,0,17.067-7.642,17.067-17.067V435.2H34.133z"/>
<path style="fill:#D9DCDF;" d="M366.933,418.133H145.067c-9.426,0-17.067-7.641-17.067-17.067V204.8
	c0-9.426,7.641-17.067,17.067-17.067h221.867c9.426,0,17.067,7.641,17.067,17.067v196.267
	C384,410.493,376.359,418.133,366.933,418.133z"/>
<path style="fill:#C4DF64;" d="M384,204.8c0-9.425-7.641-17.067-17.067-17.067H145.067c-9.426,0-17.067,7.642-17.067,17.067v34.133
	h256V204.8z"/>
<path style="fill:#C6CACF;" d="M145.067,401.067V204.8c0-9.425,7.641-17.067,17.067-17.067h-17.067
	c-9.426,0-17.067,7.642-17.067,17.067v196.267c0,9.425,7.641,17.067,17.067,17.067h17.067
	C152.707,418.133,145.067,410.492,145.067,401.067z"/>
<path style="fill:#8AC451;" d="M162.133,187.733h-17.067c-9.426,0-17.067,7.642-17.067,17.067v34.133h17.067V204.8
	C145.067,195.375,152.707,187.733,162.133,187.733z"/>
<circle style="fill:#529E44;" cx="349.867" cy="213.333" r="8.533"/>
<path style="fill:#D8ED8C;" d="M349.867,392.533H162.133c-4.713,0-8.533-3.821-8.533-8.533v-25.6c0-4.713,3.821-8.533,8.533-8.533
	h187.733c4.713,0,8.533,3.821,8.533,8.533V384C358.4,388.713,354.579,392.533,349.867,392.533z"/>
<rect x="162.133" y="358.4" style="fill:#C4DF64;" width="187.733" height="25.6"/>
<g>
</g>
<g>
</g>
<g>
</g>
<g>
</g>
<g>
</g>
<g>
</g>
<g>
</g>
<g>
</g>
<g>
</g>
<g>
</g>
<g>
</g>
<g>
</g>
<g>
</g>
<g>
</g>
<g>
</g>
</svg>
