<?xml version="1.0" encoding="iso-8859-1"?>
<!-- Generator: Adobe Illustrator 19.0.0, SVG Export Plug-In . SVG Version: 6.00 Build 0)  -->
<svg version="1.1" id="Layer_1" xmlns="http://www.w3.org/2000/svg" xmlns:xlink="http://www.w3.org/1999/xlink" x="0px" y="0px"
	 viewBox="0 0 512 512" style="enable-background:new 0 0 512 512;" xml:space="preserve">
<path style="fill:#ECEDEF;" d="M100.641,0c-14.139,0-25.6,11.461-25.6,25.6v460.8c0,14.139,11.461,25.6,25.6,25.6h375.467
	c14.139,0,25.6-11.461,25.6-25.6V85.333L416.375,0H100.641z"/>
<path style="fill:#D9DCDF;" d="M441.975,85.333h59.733L416.375,0v59.733C416.375,73.872,427.836,85.333,441.975,85.333z"/>
<path style="fill:#C6CACF;" d="M399.308,42.667H75.041v153.6h324.267c4.713,0,8.533-3.821,8.533-8.533V51.2
	C407.841,46.487,404.02,42.667,399.308,42.667z"/>
<path style="fill:#529E44;" d="M382.241,179.2H18.843c-7.602,0-11.41-9.191-6.034-14.567L75.041,102.4L12.809,40.167
	C7.433,34.791,11.241,25.6,18.843,25.6h363.398c4.713,0,8.533,3.821,8.533,8.533v136.533
	C390.775,175.379,386.954,179.2,382.241,179.2z"/>
<rect x="160.373" y="221.867" style="fill:#FF9785;" width="256" height="42.667"/>
<polygon style="fill:#A1D1EA;" points="331.041,315.733 331.041,264.533 245.708,264.533 245.708,315.733 245.708,366.933 
	416.375,366.933 416.375,315.733 "/>
<path style="fill:#7B848F;" d="M416.375,213.333h-153.6c-4.713,0-8.533,3.821-8.533,8.533c0,4.713,3.821,8.533,8.533,8.533h145.067
	V256H168.908v-25.6h51.2c4.713,0,8.533-3.821,8.533-8.533c0-4.713-3.821-8.533-8.533-8.533h-59.733
	c-4.713,0-8.533,3.821-8.533,8.533V460.8c0,4.713,3.821,8.533,8.533,8.533h170.667c4.713,0,8.533-3.821,8.533-8.533v-85.333h76.8
	c4.713,0,8.533-3.821,8.533-8.533V221.867C424.908,217.154,421.088,213.333,416.375,213.333z M407.841,307.2h-68.267v-34.133h68.267
	V307.2z M168.908,375.467h68.267V409.6h-68.267V375.467z M168.908,358.4v-34.133h68.267V358.4H168.908z M254.241,324.267h68.267
	V358.4h-68.267L254.241,324.267L254.241,324.267z M254.241,307.2v-34.133h68.267V307.2H254.241z M237.175,273.067V307.2h-68.267
	v-34.133H237.175z M168.908,426.667h68.267v25.6h-68.267V426.667z M254.241,426.667h68.267v25.6h-68.267L254.241,426.667
	L254.241,426.667z M322.508,409.6h-68.267v-34.133h68.267V409.6z M339.575,324.267h68.267V358.4h-68.267V324.267z"/>
<path style="fill:#529E44;" d="M393.481,422.4l20.839-24.313c3.067-3.579,2.653-8.965-0.926-12.033
	c-3.579-3.067-8.965-2.652-12.033,0.926l-19.121,22.307l-19.121-22.307c-3.068-3.578-8.454-3.993-12.033-0.926
	c-3.578,3.067-3.993,8.454-0.926,12.033l20.842,24.313l-20.839,24.313c-2.766,3.227-2.694,8.148,0.165,11.294
	c3.406,3.745,9.502,3.652,12.794-0.187l19.121-22.307l19.121,22.307c3.296,3.844,9.38,3.924,12.794,0.187
	c2.865-3.138,2.926-8.071,0.165-11.294L393.481,422.4z"/>
<g>
	<path style="fill:#FFFFFF;" d="M305.441,102.4h-17.067v-8.533h17.067c4.713,0,8.533-3.821,8.533-8.533s-3.821-8.533-8.533-8.533
		h-25.6c-4.713,0-8.533,3.821-8.533,8.533v25.6c0,4.713,3.821,8.533,8.533,8.533h17.067V128h-17.067
		c-4.713,0-8.533,3.821-8.533,8.533s3.821,8.533,8.533,8.533h25.6c4.713,0,8.533-3.821,8.533-8.533v-25.6
		C313.975,106.221,310.155,102.4,305.441,102.4z"/>
	<path style="fill:#FFFFFF;" d="M254.241,128h-17.067V85.333c0-4.713-3.821-8.533-8.533-8.533c-4.713,0-8.533,3.821-8.533,8.533
		v51.2c0,4.713,3.821,8.533,8.533,8.533h25.6c4.713,0,8.533-3.821,8.533-8.533S258.955,128,254.241,128z"/>
	<path style="fill:#FFFFFF;" d="M208.505,78.778c-3.621-3.017-9.001-2.528-12.019,1.092l-14.778,17.733L166.93,79.87
		c-3.017-3.62-8.398-4.109-12.019-1.092c-3.62,3.018-4.11,8.398-1.092,12.019l16.781,20.137l-16.781,20.137
		c-2.753,3.305-2.574,8.309,0.425,11.399c3.484,3.59,9.485,3.367,12.687-0.474l14.778-17.733l14.778,17.733
		c3.202,3.841,9.203,4.064,12.687,0.474c2.998-3.09,3.178-8.095,0.425-11.399l-16.781-20.137l16.781-20.137
		C212.613,87.175,212.125,81.795,208.505,78.778z"/>
</g>
<g>
</g>
<g>
</g>
<g>
</g>
<g>
</g>
<g>
</g>
<g>
</g>
<g>
</g>
<g>
</g>
<g>
</g>
<g>
</g>
<g>
</g>
<g>
</g>
<g>
</g>
<g>
</g>
<g>
</g>
</svg>
