<?xml version="1.0" encoding="iso-8859-1"?>
<!-- Generator: Adobe Illustrator 19.0.0, SVG Export Plug-In . SVG Version: 6.00 Build 0)  -->
<svg version="1.1" id="Layer_1" xmlns="http://www.w3.org/2000/svg" xmlns:xlink="http://www.w3.org/1999/xlink" x="0px" y="0px"
	 viewBox="0 0 512 512" style="enable-background:new 0 0 512 512;" xml:space="preserve">
<path style="fill:#ECEDEF;" d="M100.641,0c-14.139,0-25.6,11.461-25.6,25.6v460.8c0,14.139,11.461,25.6,25.6,25.6h375.467
	c14.139,0,25.6-11.461,25.6-25.6V85.333L416.375,0H100.641z"/>
<path style="fill:#D9DCDF;" d="M441.975,85.333h59.733L416.375,0v59.733C416.375,73.872,427.836,85.333,441.975,85.333z"/>
<path style="fill:#C6CACF;" d="M399.308,42.667H75.041v153.6h324.267c4.713,0,8.533-3.821,8.533-8.533V51.2
	C407.841,46.487,404.02,42.667,399.308,42.667z"/>
<path style="fill:#FF8C78;" d="M382.241,179.2H18.843c-7.602,0-11.41-9.191-6.034-14.567L75.041,102.4L12.809,40.167
	C7.433,34.791,11.241,25.6,18.843,25.6h363.398c4.713,0,8.533,3.821,8.533,8.533v136.533
	C390.775,175.379,386.954,179.2,382.241,179.2z"/>
<g>
	<path style="fill:#FFFFFF;" d="M185.975,145.067h-25.6c-4.713,0-8.533-3.821-8.533-8.533v-51.2c0-4.713,3.821-8.533,8.533-8.533
		h25.6c4.713,0,8.533,3.821,8.533,8.533s-3.821,8.533-8.533,8.533h-17.067V128h17.067c4.713,0,8.533,3.821,8.533,8.533
		S190.688,145.067,185.975,145.067z"/>
	<path style="fill:#FFFFFF;" d="M245.707,145.069c-3.573,0.001-6.902-2.261-8.094-5.837l-8.972-26.914l-8.972,26.914
		c-1.49,4.469-6.322,6.885-10.794,5.397c-4.47-1.49-6.887-6.323-5.397-10.795l17.067-51.2c1.149-3.445,4.464-5.835,8.095-5.835
		c3.632,0,6.947,2.389,8.095,5.835l17.067,51.2C255.614,139.268,251.45,145.069,245.707,145.069z"/>
	<path style="fill:#FFFFFF;" d="M305.441,145.067h-34.133c-4.713,0-8.533-3.821-8.533-8.533v-51.2c0-4.713,3.821-8.533,8.533-8.533
		h17.067c14.115,0,25.6,11.485,25.6,25.6v34.133C313.975,141.246,310.154,145.067,305.441,145.067z M279.841,128h17.067v-8.533
		h-17.067V128z M279.841,102.4h17.067c0-4.705-3.828-8.533-8.533-8.533h-8.533V102.4z"/>
</g>
<path style="fill:#D9DCDF;" d="M365.175,281.6h-153.6v-59.733c0-4.713,3.821-8.533,8.533-8.533h136.533
	c4.713,0,8.533,3.821,8.533,8.533V281.6z"/>
<rect x="211.573" y="247.467" style="fill:#B3B9BF;" width="153.6" height="34.133"/>
<path style="fill:#D9DCDF;" d="M399.308,332.8H177.441v-59.733c0-4.713,3.821-8.533,8.533-8.533h204.8
	c4.713,0,8.533,3.821,8.533,8.533V332.8z"/>
<rect x="177.44" y="298.667" style="fill:#B3B9BF;" width="221.867" height="34.133"/>
<path style="fill:#FFC44F;" d="M407.841,469.333H168.908c-9.426,0-17.067-7.641-17.067-17.067V332.8
	c0-9.426,7.641-17.067,17.067-17.067h238.933c9.426,0,17.067,7.641,17.067,17.067v119.467
	C424.908,461.693,417.267,469.333,407.841,469.333z"/>
<path style="fill:#F79F4D;" d="M168.908,443.733v-128c-9.426,0-17.067,7.642-17.067,17.067v119.467
	c0,9.425,7.641,17.067,17.067,17.067h238.933c9.426,0,17.067-7.642,17.067-17.067H177.441
	C172.729,452.267,168.908,448.446,168.908,443.733z"/>
<path style="fill:#D9DCDF;" d="M313.975,435.2h-51.2c-4.713,0-8.533-3.821-8.533-8.533V358.4c0-4.713,3.821-8.533,8.533-8.533h51.2
	c4.713,0,8.533,3.821,8.533,8.533v68.267C322.508,431.379,318.687,435.2,313.975,435.2z"/>
<path style="fill:#7B848F;" d="M254.241,400.832v25.835c0,4.713,3.821,8.533,8.533,8.533h51.2c4.713,0,8.533-3.821,8.533-8.533
	v-25.312L254.241,400.832z"/>
<g>
</g>
<g>
</g>
<g>
</g>
<g>
</g>
<g>
</g>
<g>
</g>
<g>
</g>
<g>
</g>
<g>
</g>
<g>
</g>
<g>
</g>
<g>
</g>
<g>
</g>
<g>
</g>
<g>
</g>
</svg>
