<?xml version="1.0" encoding="iso-8859-1"?>
<!-- Generator: Adobe Illustrator 19.0.0, SVG Export Plug-In . SVG Version: 6.00 Build 0)  -->
<svg version="1.1" id="Layer_1" xmlns="http://www.w3.org/2000/svg" xmlns:xlink="http://www.w3.org/1999/xlink" x="0px" y="0px"
	 viewBox="0 0 512 512" style="enable-background:new 0 0 512 512;" xml:space="preserve">
<path style="fill:#ECEDEF;" d="M100.641,0c-14.139,0-25.6,11.461-25.6,25.6v460.8c0,14.139,11.461,25.6,25.6,25.6h375.467
	c14.139,0,25.6-11.461,25.6-25.6V85.333L416.375,0H100.641z"/>
<path style="fill:#D9DCDF;" d="M441.975,85.333h59.733L416.375,0v59.733C416.375,73.872,427.836,85.333,441.975,85.333z"/>
<path style="fill:#C6CACF;" d="M399.308,42.667H75.041v153.6h324.267c4.713,0,8.533-3.821,8.533-8.533V51.2
	C407.841,46.487,404.02,42.667,399.308,42.667z"/>
<path style="fill:#FFC44F;" d="M382.241,179.2H18.843c-7.602,0-11.41-9.191-6.034-14.567L75.041,102.4L12.809,40.167
	C7.433,34.791,11.241,25.6,18.843,25.6h363.398c4.713,0,8.533,3.821,8.533,8.533v136.533
	C390.775,175.379,386.954,179.2,382.241,179.2z"/>
<g>
	<path style="fill:#B3B9BF;" d="M322.508,264.533h-68.267l7.345-44.069c0.686-4.115,4.245-7.131,8.417-7.131h36.742
		c4.172,0,7.731,3.015,8.417,7.131L322.508,264.533z"/>
	<path style="fill:#B3B9BF;" d="M258.205,262.892l-48.272,48.272l-25.968-36.355c-2.425-3.394-2.039-8.044,0.91-10.994
		l25.981-25.981c2.949-2.949,7.599-3.334,10.994-0.91L258.205,262.892z"/>
	<path style="fill:#B3B9BF;" d="M211.575,307.2v68.267l-44.069-7.345c-4.115-0.686-7.131-4.245-7.131-8.417v-36.742
		c0-4.172,3.015-7.731,7.131-8.417L211.575,307.2z"/>
	<path style="fill:#B3B9BF;" d="M209.933,371.503l48.272,48.272l-36.355,25.968c-3.394,2.425-8.044,2.039-10.994-0.91
		l-25.981-25.981c-2.949-2.949-3.334-7.599-0.91-10.994L209.933,371.503z"/>
	<path style="fill:#B3B9BF;" d="M254.241,418.133h68.267l-7.345,44.069c-0.686,4.115-4.245,7.131-8.417,7.131h-36.742
		c-4.172,0-7.731-3.015-8.417-7.131L254.241,418.133z"/>
	<path style="fill:#B3B9BF;" d="M318.544,419.775l48.272-48.272l25.968,36.355c2.425,3.394,2.039,8.044-0.91,10.994l-25.981,25.981
		c-2.949,2.949-7.599,3.334-10.994,0.91L318.544,419.775z"/>
	<path style="fill:#B3B9BF;" d="M365.175,375.467V307.2l44.069,7.345c4.115,0.686,7.131,4.245,7.131,8.417v36.742
		c0,4.172-3.015,7.731-7.131,8.417L365.175,375.467z"/>
	<path style="fill:#B3B9BF;" d="M366.816,311.164l-48.272-48.272l36.355-25.968c3.394-2.425,8.044-2.039,10.994,0.91l25.981,25.981
		c2.949,2.949,3.334,7.599,0.91,10.994L366.816,311.164z"/>
</g>
<path style="fill:#8E959F;" d="M288.375,247.467c-51.841,0-93.867,42.026-93.867,93.867s42.026,93.867,93.867,93.867
	s93.867-42.026,93.867-93.867S340.216,247.467,288.375,247.467z M288.375,375.467c-18.851,0-34.133-15.282-34.133-34.133
	c0-18.851,15.282-34.133,34.133-34.133s34.133,15.282,34.133,34.133C322.508,360.185,307.226,375.467,288.375,375.467z"/>
<path style="fill:#B3B9BF;" d="M288.375,281.6c-32.99,0-59.733,26.743-59.733,59.733s26.743,59.733,59.733,59.733
	s59.733-26.743,59.733-59.733S321.364,281.6,288.375,281.6z M288.375,375.467c-18.851,0-34.133-15.282-34.133-34.133
	c0-18.851,15.282-34.133,34.133-34.133s34.133,15.282,34.133,34.133C322.508,360.185,307.226,375.467,288.375,375.467z"/>
<g>
	<path style="fill:#FFFFFF;" d="M203.041,145.067h-34.133c-4.713,0-8.533-3.821-8.533-8.533v-51.2c0-4.713,3.821-8.533,8.533-8.533
		h17.067c14.116,0,25.6,11.484,25.6,25.6v34.133C211.575,141.246,207.755,145.067,203.041,145.067z M177.441,128h17.067v-25.6
		c0-4.705-3.828-8.533-8.533-8.533h-8.533V128z"/>
	<path style="fill:#FFFFFF;" d="M254.241,145.067h-25.6c-4.713,0-8.533-3.821-8.533-8.533v-51.2c0-4.713,3.821-8.533,8.533-8.533
		c4.713,0,8.533,3.821,8.533,8.533V128h17.067c4.713,0,8.533,3.821,8.533,8.533S258.954,145.067,254.241,145.067z"/>
	<path style="fill:#FFFFFF;" d="M305.441,145.067h-25.6c-4.713,0-8.533-3.821-8.533-8.533v-51.2c0-4.713,3.821-8.533,8.533-8.533
		c4.713,0,8.533,3.821,8.533,8.533V128h17.067c4.713,0,8.533,3.821,8.533,8.533S310.154,145.067,305.441,145.067z"/>
</g>
<g>
</g>
<g>
</g>
<g>
</g>
<g>
</g>
<g>
</g>
<g>
</g>
<g>
</g>
<g>
</g>
<g>
</g>
<g>
</g>
<g>
</g>
<g>
</g>
<g>
</g>
<g>
</g>
<g>
</g>
</svg>
