<?xml version="1.0" encoding="iso-8859-1"?>
<!-- Generator: Adobe Illustrator 19.0.0, SVG Export Plug-In . SVG Version: 6.00 Build 0)  -->
<svg version="1.1" id="Layer_1" xmlns="http://www.w3.org/2000/svg" xmlns:xlink="http://www.w3.org/1999/xlink" x="0px" y="0px"
	 viewBox="0 0 512 512" style="enable-background:new 0 0 512 512;" xml:space="preserve">
<path style="fill:#ECEDEF;" d="M100.641,0c-14.139,0-25.6,11.461-25.6,25.6v460.8c0,14.139,11.461,25.6,25.6,25.6h375.467
	c14.139,0,25.6-11.461,25.6-25.6V85.333L416.375,0H100.641z"/>
<path style="fill:#D9DCDF;" d="M441.975,85.333h59.733L416.375,0v59.733C416.375,73.872,427.836,85.333,441.975,85.333z"/>
<path style="fill:#C6CACF;" d="M399.308,42.667H75.041v153.6h324.267c4.713,0,8.533-3.821,8.533-8.533V51.2
	C407.841,46.487,404.02,42.667,399.308,42.667z"/>
<path style="fill:#529E44;" d="M382.241,179.2H18.843c-7.602,0-11.41-9.191-6.034-14.567L75.041,102.4L12.809,40.167
	C7.433,34.791,11.241,25.6,18.843,25.6h363.398c4.713,0,8.533,3.821,8.533,8.533v136.533
	C390.775,175.379,386.954,179.2,382.241,179.2z"/>
<g>
	<path style="fill:#FFFFFF;" d="M185.975,145.067h-25.6c-4.713,0-8.533-3.821-8.533-8.533v-51.2c0-4.713,3.821-8.533,8.533-8.533
		h25.6c4.713,0,8.533,3.821,8.533,8.533s-3.821,8.533-8.533,8.533h-17.067V128h17.067c4.713,0,8.533,3.821,8.533,8.533
		S190.687,145.067,185.975,145.067z"/>
	<path style="fill:#FFFFFF;" d="M237.175,145.067h-25.6c-4.713,0-8.533-3.821-8.533-8.533s3.821-8.533,8.533-8.533h17.067v-8.533
		h-17.067c-4.713,0-8.533-3.821-8.533-8.533v-25.6c0-4.713,3.821-8.533,8.533-8.533h25.6c4.713,0,8.533,3.821,8.533,8.533
		s-3.821,8.533-8.533,8.533h-17.067v8.533h17.067c4.713,0,8.533,3.821,8.533,8.533v25.6
		C245.708,141.246,241.887,145.067,237.175,145.067z"/>
	<path style="fill:#FFFFFF;" d="M288.375,145.067h-25.6c-4.713,0-8.533-3.821-8.533-8.533s3.821-8.533,8.533-8.533h17.067v-8.533
		h-17.067c-4.713,0-8.533-3.821-8.533-8.533v-25.6c0-4.713,3.821-8.533,8.533-8.533h25.6c4.713,0,8.533,3.821,8.533,8.533
		s-3.821,8.533-8.533,8.533h-17.067v8.533h17.067c4.713,0,8.533,3.821,8.533,8.533v25.6
		C296.908,141.246,293.087,145.067,288.375,145.067z"/>
</g>
<g>
	<path style="fill:#68727E;" d="M220.108,452.267h-25.6c-14.115,0-25.6-11.485-25.6-25.6v-56.198l-14.567-14.568
		c-3.332-3.332-3.332-8.735,0-12.067l14.567-14.567v-56.199c0-14.115,11.485-25.6,25.6-25.6h25.6c4.713,0,8.533,3.821,8.533,8.533
		c0,4.713-3.821,8.533-8.533,8.533h-25.6c-4.705,0-8.533,3.828-8.533,8.533V332.8c0,2.263-0.899,4.434-2.499,6.034l-11.033,11.033
		l11.034,11.033c1.6,1.6,2.499,3.771,2.499,6.034v59.733c0,4.705,3.828,8.533,8.533,8.533h25.6c4.713,0,8.533,3.821,8.533,8.533
		C228.642,448.446,224.82,452.267,220.108,452.267z"/>
	<path style="fill:#68727E;" d="M382.241,452.267h-25.6c-4.713,0-8.533-3.821-8.533-8.533c0-4.713,3.821-8.533,8.533-8.533h25.6
		c4.705,0,8.533-3.828,8.533-8.533v-59.733c0-2.263,0.899-4.434,2.499-6.034l11.034-11.033l-11.034-11.033
		c-1.6-1.6-2.499-3.771-2.499-6.034v-59.733c0-4.705-3.828-8.533-8.533-8.533h-25.6c-4.713,0-8.533-3.821-8.533-8.533
		c0-4.713,3.821-8.533,8.533-8.533h25.6c14.115,0,25.6,11.485,25.6,25.6v56.198l14.567,14.568c3.332,3.332,3.332,8.735,0,12.067
		l-14.567,14.567v56.199C407.841,440.782,396.357,452.267,382.241,452.267z"/>
	<path style="fill:#68727E;" d="M289.441,401.067h-1.067c-4.713,0-8.533-3.821-8.533-8.533s3.821-8.533,8.533-8.533h1.067
		c4.713,0,8.533,3.821,8.533,8.533S294.154,401.067,289.441,401.067z"/>
	<path style="fill:#68727E;" d="M349.175,401.067h-1.067c-4.713,0-8.533-3.821-8.533-8.533s3.821-8.533,8.533-8.533h1.067
		c4.713,0,8.533,3.821,8.533,8.533S353.887,401.067,349.175,401.067z"/>
	<path style="fill:#68727E;" d="M229.708,401.067h-1.067c-4.713,0-8.533-3.821-8.533-8.533s3.821-8.533,8.533-8.533h1.067
		c4.713,0,8.533,3.821,8.533,8.533S234.42,401.067,229.708,401.067z"/>
</g>
<g>
</g>
<g>
</g>
<g>
</g>
<g>
</g>
<g>
</g>
<g>
</g>
<g>
</g>
<g>
</g>
<g>
</g>
<g>
</g>
<g>
</g>
<g>
</g>
<g>
</g>
<g>
</g>
<g>
</g>
</svg>
