<?xml version="1.0" encoding="iso-8859-1"?>
<!-- Generator: Adobe Illustrator 19.0.0, SVG Export Plug-In . SVG Version: 6.00 Build 0)  -->
<svg version="1.1" id="Layer_1" xmlns="http://www.w3.org/2000/svg" xmlns:xlink="http://www.w3.org/1999/xlink" x="0px" y="0px"
	 viewBox="0 0 512 512" style="enable-background:new 0 0 512 512;" xml:space="preserve">
<path style="fill:#ECEDEF;" d="M100.641,0c-14.139,0-25.6,11.461-25.6,25.6v460.8c0,14.139,11.461,25.6,25.6,25.6h375.467
	c14.139,0,25.6-11.461,25.6-25.6V85.333L416.375,0H100.641z"/>
<path style="fill:#D9DCDF;" d="M441.975,85.333h59.733L416.375,0v59.733C416.375,73.872,427.836,85.333,441.975,85.333z"/>
<path style="fill:#C6CACF;" d="M399.308,42.667H75.041v153.6h324.267c4.713,0,8.533-3.821,8.533-8.533V51.2
	C407.841,46.487,404.02,42.667,399.308,42.667z"/>
<path style="fill:#DB6B5E;" d="M382.241,179.2H18.843c-7.602,0-11.41-9.191-6.034-14.567L75.041,102.4L12.809,40.167
	C7.433,34.791,11.241,25.6,18.843,25.6h363.398c4.713,0,8.533,3.821,8.533,8.533v136.533
	C390.775,175.379,386.954,179.2,382.241,179.2z"/>
<g>
	<path style="fill:#FFFFFF;" d="M185.975,93.867c4.713,0,8.533-3.821,8.533-8.533s-3.821-8.533-8.533-8.533h-34.133
		c-4.713,0-8.533,3.821-8.533,8.533v51.2c0,4.713,3.821,8.533,8.533,8.533h34.133c4.713,0,8.533-3.821,8.533-8.533
		S190.687,128,185.975,128h-25.6v-8.533h8.533c4.713,0,8.533-3.821,8.533-8.533s-3.821-8.533-8.533-8.533h-8.533v-8.533H185.975z"/>
	<path style="fill:#FFFFFF;" d="M305.441,128h-25.6v-8.533h8.533c4.713,0,8.533-3.821,8.533-8.533s-3.821-8.533-8.533-8.533h-8.533
		v-8.533h25.6c4.713,0,8.533-3.821,8.533-8.533s-3.821-8.533-8.533-8.533h-34.133c-4.713,0-8.533,3.821-8.533,8.533v51.2
		c0,4.713,3.821,8.533,8.533,8.533h34.133c4.713,0,8.533-3.821,8.533-8.533S310.154,128,305.441,128z"/>
	<path style="fill:#FFFFFF;" d="M250.442,78.234c-3.924-2.618-9.221-1.554-11.834,2.367l-9.967,14.95l-9.967-14.95
		c-2.612-3.921-7.913-4.981-11.834-2.367c-3.922,2.614-4.981,7.911-2.367,11.834l13.913,20.866l-13.911,20.867
		c-2.39,3.585-1.671,8.551,1.651,11.301c3.851,3.187,9.779,2.322,12.549-1.835l9.967-14.95l9.967,14.95
		c2.769,4.156,8.699,5.022,12.549,1.835c3.323-2.75,4.042-7.715,1.651-11.301l-13.913-20.867l13.911-20.867
		C255.423,86.145,254.363,80.847,250.442,78.234z"/>
</g>
<path style="fill:#C6CACF;" d="M407.841,452.267H168.908c-9.426,0-17.067-7.641-17.067-17.067V256
	c0-9.426,7.641-17.067,17.067-17.067h238.933c9.426,0,17.067,7.641,17.067,17.067v179.2
	C424.908,444.626,417.267,452.267,407.841,452.267z"/>
<path style="fill:#B3B9BF;" d="M177.441,435.2V256c0-9.425,7.641-17.067,17.067-17.067h-25.6c-9.426,0-17.067,7.642-17.067,17.067
	v179.2c0,9.425,7.641,17.067,17.067,17.067h25.6C185.083,452.267,177.441,444.625,177.441,435.2z"/>
<path style="fill:#7B848F;" d="M424.908,256c0-9.425-7.642-17.067-17.067-17.067H168.908c-9.426,0-17.067,7.642-17.067,17.067
	v68.622h273.067V256z"/>
<path style="fill:#68727E;" d="M194.508,238.933h-25.6c-9.426,0-17.067,7.642-17.067,17.067v68.622h25.6V256
	C177.441,246.575,185.083,238.933,194.508,238.933z"/>
<g>
	<path style="fill:#55606E;" d="M203.044,426.667c-3.691,0-7.055-2.468-8.151-5.993c-0.993-3.191,0.014-6.762,2.53-8.962
		l26.794-23.445l-26.794-23.444c-3.5-3.061-3.865-8.542-0.803-12.042c3.061-3.5,8.542-3.866,12.041-0.802l34.133,29.867
		c3.828,3.349,3.828,9.494,0,12.844l-34.133,29.867C207.042,425.971,205.039,426.667,203.044,426.667z"/>
	<path style="fill:#55606E;" d="M279.841,426.667h-17.067c-4.713,0-8.533-3.821-8.533-8.533s3.821-8.533,8.533-8.533h17.067
		c4.713,0,8.533,3.821,8.533,8.533S284.554,426.667,279.841,426.667z"/>
</g>
<circle style="fill:#4FA9EA;" cx="254.24" cy="281.6" r="25.6"/>
<circle style="fill:#558CCF;" cx="254.24" cy="281.6" r="17.067"/>
<circle style="fill:#FF9785;" cx="313.973" cy="281.6" r="25.6"/>
<circle style="fill:#DF7A6E;" cx="313.973" cy="281.6" r="17.067"/>
<circle style="fill:#FFCA61;" cx="373.707" cy="281.6" r="25.6"/>
<circle style="fill:#F8A95F;" cx="373.707" cy="281.6" r="17.067"/>
<g>
</g>
<g>
</g>
<g>
</g>
<g>
</g>
<g>
</g>
<g>
</g>
<g>
</g>
<g>
</g>
<g>
</g>
<g>
</g>
<g>
</g>
<g>
</g>
<g>
</g>
<g>
</g>
<g>
</g>
</svg>
