<?xml version="1.0" encoding="iso-8859-1"?>
<!-- Generator: Adobe Illustrator 19.0.0, SVG Export Plug-In . SVG Version: 6.00 Build 0)  -->
<svg version="1.1" id="Layer_1" xmlns="http://www.w3.org/2000/svg" xmlns:xlink="http://www.w3.org/1999/xlink" x="0px" y="0px"
	 viewBox="0 0 512 512" style="enable-background:new 0 0 512 512;" xml:space="preserve">
<path style="fill:#D9DCDF;" d="M469.333,179.2H42.667V59.733c0-4.713,3.821-8.533,8.533-8.533h409.6
	c4.713,0,8.533,3.821,8.533,8.533V179.2z"/>
<rect x="42.667" y="119.467" style="fill:#C6CACF;" width="426.667" height="51.2"/>
<path style="fill:#AAB0B7;" d="M145.067,136.533V102.4c0-9.426-7.641-17.067-17.067-17.067H17.067C7.641,85.333,0,92.974,0,102.4
	v341.333c0,9.426,7.641,17.067,17.067,17.067h477.867c9.426,0,17.067-7.641,17.067-17.067V153.6c0-9.426-7.641-17.067-17.067-17.067
	H145.067z"/>
<path style="fill:#979EA7;" d="M34.133,435.2c-4.713,0-8.533-3.821-8.533-8.533V85.333h-8.533C7.641,85.333,0,92.975,0,102.4
	v341.333c0,9.425,7.641,17.067,17.067,17.067h477.867c9.426,0,17.067-7.642,17.067-17.067V435.2H34.133z"/>
<path style="fill:#55606E;" d="M256,273.6c-4.713,0-8.533-3.821-8.533-8.533v-46.933c0-7.058,5.742-12.8,12.8-12.8h89.6v-25.6
	c0-4.713,3.821-8.533,8.533-8.533s8.533,3.821,8.533,8.533V209.6c0,7.058-5.742,12.8-12.8,12.8h-89.6v42.667
	C264.533,269.779,260.713,273.6,256,273.6z"/>
<g>
	<path style="fill:#7B848F;" d="M230.4,231.467h-51.2c-4.418,0-8,3.581-8,8v25.6c0,4.419,3.582,8,8,8h51.2c4.418,0,8-3.581,8-8
		v-25.6C238.4,235.047,234.818,231.467,230.4,231.467z"/>
	<path style="fill:#7B848F;" d="M332.8,231.467h-51.2c-4.418,0-8,3.581-8,8v25.6c0,4.419,3.582,8,8,8h51.2c4.418,0,8-3.581,8-8
		v-25.6C340.8,235.047,337.218,231.467,332.8,231.467z"/>
</g>
<g>
	<path style="fill:#68727E;" d="M171.2,246.578v18.489c0,4.419,3.582,8,8,8h51.2c4.418,0,8-3.581,8-8v-18.489L171.2,246.578
		L171.2,246.578z"/>
	<path style="fill:#68727E;" d="M273.6,246.578v18.489c0,4.419,3.582,8,8,8h51.2c4.418,0,8-3.581,8-8v-18.489L273.6,246.578
		L273.6,246.578z"/>
</g>
<path style="fill:#D9DCDF;" d="M332.8,257.067H179.2c-42.053,0-76.267,34.213-76.267,76.267S137.147,409.6,179.2,409.6
	c25.553,0,49.49-12.965,63.556-34.133h26.487C283.31,396.635,307.247,409.6,332.8,409.6c42.053,0,76.267-34.213,76.267-76.267
	S374.853,257.067,332.8,257.067z"/>
<path style="fill:#C6CACF;" d="M332.8,393.067c-25.553,0-49.49-12.965-63.556-34.133h-26.487
	c-14.066,21.168-38.003,34.133-63.556,34.133c-39.26,0-71.676-29.822-75.811-68c-0.294,2.717-0.455,5.473-0.455,8.267
	c0,42.053,34.213,76.267,76.267,76.267c25.553,0,49.49-12.965,63.556-34.133h26.487C283.31,396.635,307.247,409.6,332.8,409.6
	c42.053,0,76.267-34.213,76.267-76.267c0-2.794-0.161-5.55-0.455-8.267C404.476,363.245,372.06,393.067,332.8,393.067z"/>
<path style="fill:#FF8C78;" d="M311.467,329.6c-13.822,0-25.067,11.245-25.067,25.067s11.245,25.067,25.067,25.067
	s25.067-11.245,25.067-25.067S325.289,329.6,311.467,329.6z"/>
<path style="fill:#DB6B5E;" d="M311.467,337.6c-9.41,0-17.067,7.657-17.067,17.067s7.657,17.067,17.067,17.067
	s17.067-7.657,17.067-17.067S320.877,337.6,311.467,337.6z"/>
<path style="fill:#FF8C78;" d="M320.533,312c0,13.822,11.245,25.067,25.067,25.067c13.822,0,25.067-11.245,25.067-25.067
	c0-13.822-11.245-25.067-25.067-25.067C331.778,286.933,320.533,298.178,320.533,312z"/>
<path style="fill:#DB6B5E;" d="M328.533,312c0,9.41,7.657,17.067,17.067,17.067s17.067-7.657,17.067-17.067
	c0-9.41-7.657-17.067-17.067-17.067S328.533,302.59,328.533,312z"/>
<path style="fill:#3C9FE8;" d="M204.8,325.333h-17.6v-17.6c0-4.419-3.582-8-8-8c-4.418,0-8,3.581-8,8v17.6h-17.6
	c-4.418,0-8,3.581-8,8c0,4.419,3.582,8,8,8h17.6v17.6c0,4.419,3.582,8,8,8c4.418,0,8-3.581,8-8v-17.6h17.6c4.418,0,8-3.581,8-8
	C212.8,328.914,209.218,325.333,204.8,325.333z"/>
<g>
	<path style="fill:#8E959F;" d="M256,307.733h-17.067c-4.713,0-8.533-3.821-8.533-8.533s3.821-8.533,8.533-8.533H256
		c4.713,0,8.533,3.821,8.533,8.533S260.713,307.733,256,307.733z"/>
	<path style="fill:#8E959F;" d="M256,341.867h-17.067c-4.713,0-8.533-3.821-8.533-8.533c0-4.713,3.821-8.533,8.533-8.533H256
		c4.713,0,8.533,3.821,8.533,8.533C264.533,338.046,260.713,341.867,256,341.867z"/>
</g>
<g>
</g>
<g>
</g>
<g>
</g>
<g>
</g>
<g>
</g>
<g>
</g>
<g>
</g>
<g>
</g>
<g>
</g>
<g>
</g>
<g>
</g>
<g>
</g>
<g>
</g>
<g>
</g>
<g>
</g>
</svg>
