<?xml version="1.0" encoding="iso-8859-1"?>
<!-- Generator: Adobe Illustrator 19.0.0, SVG Export Plug-In . SVG Version: 6.00 Build 0)  -->
<svg version="1.1" id="Layer_1" xmlns="http://www.w3.org/2000/svg" xmlns:xlink="http://www.w3.org/1999/xlink" x="0px" y="0px"
	 viewBox="0 0 512 512" style="enable-background:new 0 0 512 512;" xml:space="preserve">
<path style="fill:#D9DCDF;" d="M469.333,179.2H42.667V59.733c0-4.713,3.821-8.533,8.533-8.533h409.6
	c4.713,0,8.533,3.821,8.533,8.533V179.2z"/>
<rect x="42.667" y="119.467" style="fill:#C6CACF;" width="426.667" height="51.2"/>
<path style="fill:#AAB0B7;" d="M145.067,136.533V102.4c0-9.426-7.641-17.067-17.067-17.067H17.067C7.641,85.333,0,92.974,0,102.4
	v341.333c0,9.426,7.641,17.067,17.067,17.067h477.867c9.426,0,17.067-7.641,17.067-17.067V153.6c0-9.426-7.641-17.067-17.067-17.067
	H145.067z"/>
<path style="fill:#979EA7;" d="M34.133,435.2c-4.713,0-8.533-3.821-8.533-8.533V85.333h-8.533C7.641,85.333,0,92.975,0,102.4
	v341.333c0,9.425,7.641,17.067,17.067,17.067h477.867c9.426,0,17.067-7.642,17.067-17.067V435.2H34.133z"/>
<path style="fill:#D9DCDF;" d="M315.733,418.133H128c-4.713,0-8.533-3.821-8.533-8.533V204.8c0-4.713,3.821-8.533,8.533-8.533
	h187.733c4.713,0,8.533,3.821,8.533,8.533v204.8C324.267,414.313,320.446,418.133,315.733,418.133z"/>
<path style="fill:#C6CACF;" d="M140.8,401.067c-2.356,0-4.267-1.91-4.267-4.267V196.267H128c-4.713,0-8.533,3.821-8.533,8.533v204.8
	c0,4.713,3.821,8.533,8.533,8.533h187.733c4.713,0,8.533-3.821,8.533-8.533v-8.533H140.8z"/>
<g>
	<path style="fill:#B3B9BF;" d="M273.067,256h-102.4c-4.713,0-8.533-3.821-8.533-8.533c0-4.713,3.821-8.533,8.533-8.533h102.4
		c4.713,0,8.533,3.821,8.533,8.533C281.6,252.179,277.779,256,273.067,256z"/>
	<path style="fill:#B3B9BF;" d="M273.067,315.733h-102.4c-4.713,0-8.533-3.821-8.533-8.533s3.821-8.533,8.533-8.533h102.4
		c4.713,0,8.533,3.821,8.533,8.533S277.779,315.733,273.067,315.733z"/>
	<path style="fill:#B3B9BF;" d="M273.067,375.467h-102.4c-4.713,0-8.533-3.821-8.533-8.533s3.821-8.533,8.533-8.533h102.4
		c4.713,0,8.533,3.821,8.533,8.533S277.779,375.467,273.067,375.467z"/>
</g>
<rect x="358.4" y="238.933" style="fill:#FF8C78;" width="34.133" height="153.6"/>
<path style="fill:#FFC44F;" d="M392.533,238.933H358.4l13.019-39.057c1.297-3.89,6.799-3.89,8.095,0L392.533,238.933z"/>
<path style="fill:#55606E;" d="M379.515,199.876c-1.297-3.89-6.799-3.89-8.095,0l-3.383,10.149h14.862L379.515,199.876z"/>
<path style="fill:#ECEDEF;" d="M384,418.133h-17.067c-4.713,0-8.533-3.821-8.533-8.533v-17.067h34.133V409.6
	C392.533,414.313,388.713,418.133,384,418.133z"/>
<rect x="358.4" y="238.933" style="fill:#DB6B5E;" width="8.8" height="153.6"/>
<polygon style="fill:#F79F4D;" points="358.4,238.933 367.2,238.933 367.2,212.533 "/>
<path style="fill:#D9DCDF;" d="M358.4,392.533V409.6c0,4.713,3.821,8.533,8.533,8.533h0.267v-25.6H358.4z"/>
<g>
</g>
<g>
</g>
<g>
</g>
<g>
</g>
<g>
</g>
<g>
</g>
<g>
</g>
<g>
</g>
<g>
</g>
<g>
</g>
<g>
</g>
<g>
</g>
<g>
</g>
<g>
</g>
<g>
</g>
</svg>
