<?xml version="1.0" encoding="iso-8859-1"?>
<!-- Generator: Adobe Illustrator 19.0.0, SVG Export Plug-In . SVG Version: 6.00 Build 0)  -->
<svg version="1.1" id="Layer_1" xmlns="http://www.w3.org/2000/svg" xmlns:xlink="http://www.w3.org/1999/xlink" x="0px" y="0px"
	 viewBox="0 0 512 512" style="enable-background:new 0 0 512 512;" xml:space="preserve">
<path style="fill:#ECEDEF;" d="M100.641,0c-14.139,0-25.6,11.461-25.6,25.6v460.8c0,14.139,11.461,25.6,25.6,25.6h375.467
	c14.139,0,25.6-11.461,25.6-25.6V85.333L416.375,0H100.641z"/>
<path style="fill:#D9DCDF;" d="M441.975,85.333h59.733L416.375,0v59.733C416.375,73.872,427.836,85.333,441.975,85.333z"/>
<path style="fill:#C6CACF;" d="M399.308,42.667H75.041v153.6h324.267c4.713,0,8.533-3.821,8.533-8.533V51.2
	C407.841,46.487,404.02,42.667,399.308,42.667z"/>
<path style="fill:#F79F4D;" d="M382.241,179.2H18.843c-7.602,0-11.41-9.191-6.034-14.567L75.041,102.4L12.809,40.167
	C7.433,34.791,11.241,25.6,18.843,25.6h363.398c4.713,0,8.533,3.821,8.533,8.533v136.533
	C390.775,175.379,386.954,179.2,382.241,179.2z"/>
<g>
	<path style="fill:#FFFFFF;" d="M203.04,145.069c-3.573,0-6.902-2.261-8.094-5.837l-8.972-26.913l-8.972,26.913
		c-1.47,4.412-6.382,6.868-10.794,5.397c-4.411-1.471-6.867-6.383-5.397-10.794l17.067-51.2c1.149-3.445,4.464-5.835,8.095-5.835
		c3.632,0,6.947,2.389,8.095,5.835l17.067,51.2C212.948,139.268,208.782,145.069,203.04,145.069z"/>
	<path style="fill:#FFFFFF;" d="M237.175,145.067c-3.673,0-6.933-2.351-8.095-5.835l-17.067-51.2
		c-1.49-4.47,0.926-9.303,5.397-10.794c4.469-1.489,9.303,0.926,10.794,5.397l8.972,26.913l8.972-26.913
		c1.491-4.47,6.321-6.886,10.795-5.397c4.47,1.49,6.886,6.323,5.397,10.794l-17.067,51.2
		C244.109,142.716,240.848,145.067,237.175,145.067z"/>
	<path style="fill:#FFFFFF;" d="M279.841,145.067c-4.713,0-8.533-3.821-8.533-8.533v-51.2c0-4.713,3.821-8.533,8.533-8.533
		c4.713,0,8.533,3.821,8.533,8.533v51.2C288.375,141.246,284.554,145.067,279.841,145.067z"/>
</g>
<path style="fill:#7B848F;" d="M218.16,322.443l-42.4-12.72c-5.475-1.643-10.986,2.458-10.986,8.174v63.941
	c0,5.716,5.51,9.815,10.986,8.174l42.4-12.72c3.61-1.083,6.081-4.405,6.081-8.174v-38.502
	C224.241,326.847,221.77,323.525,218.16,322.443z"/>
<g>
	<path style="fill:#68727E;" d="M218.16,322.443l-10.719-3.216v61.28l10.719-3.216c3.61-1.083,6.081-4.405,6.081-8.174v-38.502
		C224.241,326.847,221.77,323.525,218.16,322.443z"/>
	<path style="fill:#68727E;" d="M335.173,469.336c-3.573,0-6.902-2.261-8.095-5.837l-8.971-26.913l-8.971,26.913
		c-1.472,4.412-6.382,6.868-10.795,5.397c-4.411-1.471-6.866-6.383-5.397-10.794l17.067-51.2c1.162-3.485,4.422-5.835,8.096-5.835
		c3.674,0,6.934,2.351,8.096,5.835l17.067,51.2C345.081,463.535,340.915,469.336,335.173,469.336z"/>
</g>
<path style="fill:#D9DCDF;" d="M394.908,418.133H232.775c-9.426,0-17.067-7.641-17.067-17.067v-102.4
	c0-9.426,7.641-17.067,17.067-17.067h162.133c9.426,0,17.067,7.641,17.067,17.067v102.4
	C411.975,410.493,404.334,418.133,394.908,418.133z"/>
<path style="fill:#C6CACF;" d="M232.775,392.533V281.6c-9.426,0-17.067,7.641-17.067,17.067v102.4
	c0,9.426,7.641,17.067,17.067,17.067h162.133c9.426,0,17.067-7.641,17.067-17.067H241.308
	C236.595,401.067,232.775,397.246,232.775,392.533z"/>
<path style="fill:#FFD684;" d="M286.819,315.733V384c0,7.031,8.028,11.045,13.653,6.827l45.511-34.133
	c4.551-3.413,4.551-10.24,0-13.653l-45.511-34.133C294.847,304.688,286.819,308.702,286.819,315.733z"/>
<path style="fill:#FFC44F;" d="M302.179,383.139c-2.813,2.11-6.827,0.102-6.827-3.413v-72.522c-4.407,0.019-8.533,3.489-8.533,8.529
	V384c0,7.031,8.028,11.045,13.653,6.827l45.511-34.133c2.86-2.145,3.92-5.636,3.186-8.783L302.179,383.139z"/>
<g>
	<circle style="fill:#DB6B5E;" cx="288.245" cy="256" r="25.6"/>
	<circle style="fill:#DB6B5E;" cx="347.979" cy="256" r="25.6"/>
</g>
<g>
</g>
<g>
</g>
<g>
</g>
<g>
</g>
<g>
</g>
<g>
</g>
<g>
</g>
<g>
</g>
<g>
</g>
<g>
</g>
<g>
</g>
<g>
</g>
<g>
</g>
<g>
</g>
<g>
</g>
</svg>
