<?xml version="1.0" encoding="iso-8859-1"?>
<!-- Generator: Adobe Illustrator 19.0.0, SVG Export Plug-In . SVG Version: 6.00 Build 0)  -->
<svg version="1.1" id="Layer_1" xmlns="http://www.w3.org/2000/svg" xmlns:xlink="http://www.w3.org/1999/xlink" x="0px" y="0px"
	 viewBox="0 0 512 512" style="enable-background:new 0 0 512 512;" xml:space="preserve">
<path style="fill:#ECEDEF;" d="M100.641,0c-14.139,0-25.6,11.461-25.6,25.6v460.8c0,14.139,11.461,25.6,25.6,25.6h375.467
	c14.139,0,25.6-11.461,25.6-25.6V85.333L416.375,0H100.641z"/>
<path style="fill:#D9DCDF;" d="M441.975,85.333h59.733L416.375,0v59.733C416.375,73.872,427.836,85.333,441.975,85.333z"/>
<path style="fill:#C6CACF;" d="M399.308,42.667H75.041v153.6h324.267c4.713,0,8.533-3.821,8.533-8.533V51.2
	C407.841,46.487,404.02,42.667,399.308,42.667z"/>
<path style="fill:#C4DF64;" d="M382.241,179.2H18.843c-7.602,0-11.41-9.191-6.034-14.567L75.041,102.4L12.809,40.167
	C7.433,34.791,11.241,25.6,18.843,25.6h363.398c4.713,0,8.533,3.821,8.533,8.533v136.533
	C390.775,175.379,386.954,179.2,382.241,179.2z"/>
<g>
	<path style="fill:#FFFFFF;" d="M194.508,145.067c-4.713,0-8.533-3.821-8.533-8.533v-30.599l-11.033,11.033
		c-3.332,3.332-8.735,3.332-12.067,0l-11.033-11.033v30.599c0,4.713-3.821,8.533-8.533,8.533c-4.713,0-8.533-3.821-8.533-8.533
		v-51.2c0-3.452,2.079-6.563,5.267-7.884c3.19-1.321,6.861-0.59,9.299,1.85l19.566,19.566l19.566-19.566
		c2.441-2.439,6.111-3.171,9.299-1.85c3.188,1.321,5.267,4.432,5.267,7.884v51.2C203.041,141.246,199.221,145.067,194.508,145.067z"
		/>
	<path style="fill:#FFFFFF;" d="M220.108,145.067c-4.713,0-8.533-3.821-8.533-8.533v-51.2c0-4.713,3.821-8.533,8.533-8.533h34.133
		c4.713,0,8.533,3.821,8.533,8.533v25.6c0,4.713-3.821,8.533-8.533,8.533h-25.6v17.067
		C228.641,141.246,224.821,145.067,220.108,145.067z M228.641,102.4h17.067v-8.533h-17.067V102.4z"/>
	<path style="fill:#FFFFFF;" d="M313.975,145.067h-34.133c-4.713,0-8.533-3.821-8.533-8.533v-51.2c0-4.713,3.821-8.533,8.533-8.533
		h34.133c4.713,0,8.533,3.821,8.533,8.533s-3.821,8.533-8.533,8.533h-25.6V128h17.067v-8.533c-4.713,0-8.533-3.821-8.533-8.533
		s3.821-8.533,8.533-8.533h8.533c4.713,0,8.533,3.821,8.533,8.533v25.6C322.508,141.246,318.688,145.067,313.975,145.067z"/>
</g>
<path style="fill:#C5E8FA;" d="M160.375,315.733h256c4.713,0,8.533,3.821,8.533,8.533V460.8c0,4.713-3.821,8.533-8.533,8.533h-256
	c-4.713,0-8.533-3.821-8.533-8.533V324.267C151.841,319.554,155.662,315.733,160.375,315.733z"/>
<path style="fill:#97CCE8;" d="M160.375,460.8V324.267c0-4.713,3.821-8.533,8.533-8.533h-8.533c-4.713,0-8.533,3.821-8.533,8.533
	V460.8c0,4.713,3.821,8.533,8.533,8.533h8.533C164.195,469.333,160.375,465.513,160.375,460.8z"/>
<path style="fill:#D9DCDF;" d="M151.355,263.829l252.111-44.454c4.641-0.818,9.067,2.281,9.886,6.922l5.927,33.615
	c0.818,4.641-2.281,9.067-6.922,9.886l-252.112,44.454c-4.641,0.818-9.067-2.281-9.886-6.922l-5.927-33.615
	C143.614,269.074,146.713,264.647,151.355,263.829z"/>
<path style="fill:#68727E;" d="M160.245,314.252l33.615-5.927l41.532-59.313l-84.037,14.818c-4.641,0.818-7.741,5.245-6.922,9.886
	l5.927,33.615C151.178,311.971,155.603,315.07,160.245,314.252z"/>
<path style="fill:#55606E;" d="M160.676,305.785l-5.927-33.615c-0.818-4.641,2.281-9.067,6.922-9.886l-10.317,1.545
	c-4.641,0.818-7.74,5.245-6.922,9.886l5.927,33.615c0.818,4.641,5.244,7.74,9.886,6.922l8.206-1.446
	C164.647,312.525,161.369,309.712,160.676,305.785z"/>
<polygon style="fill:#68727E;" points="361.934,278.688 403.465,219.375 319.428,234.193 277.897,293.506 "/>
<path style="fill:#D9DCDF;" d="M424.908,349.867H151.841v-25.6c0-4.713,3.821-8.533,8.533-8.533h256
	c4.713,0,8.533,3.821,8.533,8.533V349.867z"/>
<path style="fill:#68727E;" d="M160.375,315.733c-4.713,0-8.533,3.821-8.533,8.533v25.6h8.533l34.133-34.133H160.375z"/>
<path style="fill:#55606E;" d="M168.908,315.733h-8.533c-4.713,0-8.533,3.821-8.533,8.533v25.6h8.533v-25.6
	C160.375,319.554,164.195,315.733,168.908,315.733z"/>
<polygon style="fill:#68727E;" points="279.841,315.733 245.708,349.867 331.041,349.867 365.175,315.733 "/>
<path style="fill:#3C9FE8;" d="M271.308,375.483v68.267c0,7.031,8.028,11.045,13.653,6.827l45.511-34.133
	c4.551-3.413,4.551-10.24,0-13.653l-45.511-34.133C279.336,364.436,271.308,368.45,271.308,375.483z"/>
<path style="fill:#427FC9;" d="M286.668,438.644c-2.813,2.11-6.827,0.102-6.827-3.413v-68.277c-4.407,0.019-8.533,3.489-8.533,8.529
	v68.267c0,7.031,8.028,11.045,13.653,6.827l45.511-34.133c3.878-2.909,4.439-8.29,1.708-11.932L286.668,438.644z"/>
<g>
</g>
<g>
</g>
<g>
</g>
<g>
</g>
<g>
</g>
<g>
</g>
<g>
</g>
<g>
</g>
<g>
</g>
<g>
</g>
<g>
</g>
<g>
</g>
<g>
</g>
<g>
</g>
<g>
</g>
</svg>
