<?xml version="1.0" encoding="iso-8859-1"?>
<!-- Generator: Adobe Illustrator 19.0.0, SVG Export Plug-In . SVG Version: 6.00 Build 0)  -->
<svg version="1.1" id="Layer_1" xmlns="http://www.w3.org/2000/svg" xmlns:xlink="http://www.w3.org/1999/xlink" x="0px" y="0px"
	 viewBox="0 0 512 512" style="enable-background:new 0 0 512 512;" xml:space="preserve">
<path style="fill:#ECEDEF;" d="M100.641,0c-14.139,0-25.6,11.461-25.6,25.6v460.8c0,14.139,11.461,25.6,25.6,25.6h375.467
	c14.139,0,25.6-11.461,25.6-25.6V85.333L416.375,0H100.641z"/>
<path style="fill:#D9DCDF;" d="M441.975,85.333h59.733L416.375,0v59.733C416.375,73.872,427.836,85.333,441.975,85.333z"/>
<path style="fill:#C6CACF;" d="M399.308,42.667H75.041v153.6h324.267c4.713,0,8.533-3.821,8.533-8.533V51.2
	C407.841,46.487,404.02,42.667,399.308,42.667z"/>
<path style="fill:#427FC9;" d="M382.241,179.2H18.843c-7.602,0-11.41-9.191-6.034-14.567L75.041,102.4L12.809,40.167
	C7.433,34.791,11.241,25.6,18.843,25.6h363.398c4.713,0,8.533,3.821,8.533,8.533v136.533
	C390.775,175.379,386.954,179.2,382.241,179.2z"/>
<g>
	<path style="fill:#FFFFFF;" d="M185.975,76.8h-34.133c-4.713,0-8.533,3.821-8.533,8.533v51.2c0,4.713,3.821,8.533,8.533,8.533
		h34.133c4.713,0,8.533-3.821,8.533-8.533v-51.2C194.508,80.621,190.688,76.8,185.975,76.8z M177.441,128h-17.067V93.867h17.067V128
		z"/>
	<path style="fill:#FFFFFF;" d="M245.708,76.8h-34.133c-4.713,0-8.533,3.821-8.533,8.533s3.821,8.533,8.533,8.533h8.533v42.667
		c0,4.713,3.821,8.533,8.533,8.533c4.713,0,8.533-3.821,8.533-8.533V93.867h8.533c4.713,0,8.533-3.821,8.533-8.533
		S250.421,76.8,245.708,76.8z"/>
	<path style="fill:#FFFFFF;" d="M296.908,76.8h-25.6c-4.713,0-8.533,3.821-8.533,8.533v51.2c0,4.713,3.821,8.533,8.533,8.533
		c4.713,0,8.533-3.821,8.533-8.533v-17.067h8.533c4.713,0,8.533-3.821,8.533-8.533s-3.821-8.533-8.533-8.533h-8.533v-8.533h17.067
		c4.713,0,8.533-3.821,8.533-8.533S301.621,76.8,296.908,76.8z"/>
</g>
<path style="fill:#FFC44F;" d="M308.245,247.467h-39.742c-3.465,0-6.586,2.095-7.898,5.302l-69.819,170.667
	c-2.297,5.614,1.833,11.764,7.898,11.764h32.339c3.673,0,6.934-2.35,8.095-5.835l14.149-42.448c0.58-1.742,2.211-2.917,4.048-2.917
	h62.116c1.837,0,3.467,1.175,4.048,2.917l14.149,42.448c1.162,3.485,4.422,5.835,8.095,5.835h32.339
	c6.065,0,10.194-6.15,7.898-11.764l-69.819-170.667C314.832,249.562,311.711,247.467,308.245,247.467z M264.937,344.102
	l19.443-51.849c1.385-3.692,6.606-3.692,7.99,0l19.443,51.849c1.046,2.789-1.017,5.764-3.995,5.764h-38.886
	C265.952,349.867,263.89,346.892,264.937,344.102z"/>
<path style="fill:#F79F4D;" d="M268.504,247.467c-3.465,0-6.586,2.095-7.898,5.302l-69.819,170.667
	c-2.297,5.614,1.833,11.764,7.898,11.764h1.918l80.458-187.733H268.504z"/>
<g>
	<path style="fill:#7B848F;" d="M365.175,264h-34.133c-4.418,0-8-3.581-8-8v-34.133c0-4.419,3.582-8,8-8c4.418,0,8,3.581,8,8V248
		h26.133c4.418,0,8,3.581,8,8C373.175,260.419,369.593,264,365.175,264z"/>
	<path style="fill:#7B848F;" d="M245.708,264h-34.133c-4.418,0-8-3.581-8-8c0-4.419,3.582-8,8-8h26.133v-26.133c0-4.419,3.582-8,8-8
		s8,3.581,8,8V256C253.708,260.419,250.126,264,245.708,264z"/>
	<path style="fill:#7B848F;" d="M407.841,468.8c-4.418,0-8-3.581-8-8v-34.133c0-4.419,3.582-8,8-8h34.133c4.418,0,8,3.581,8,8
		c0,4.419-3.582,8-8,8h-26.133V460.8C415.841,465.219,412.259,468.8,407.841,468.8z"/>
	<path style="fill:#7B848F;" d="M168.908,468.8c-4.418,0-8-3.581-8-8v-26.133h-26.133c-4.418,0-8-3.581-8-8c0-4.419,3.582-8,8-8
		h34.133c4.418,0,8,3.581,8,8V460.8C176.908,465.219,173.326,468.8,168.908,468.8z"/>
</g>
<g>
</g>
<g>
</g>
<g>
</g>
<g>
</g>
<g>
</g>
<g>
</g>
<g>
</g>
<g>
</g>
<g>
</g>
<g>
</g>
<g>
</g>
<g>
</g>
<g>
</g>
<g>
</g>
<g>
</g>
</svg>
