<?xml version="1.0" encoding="iso-8859-1"?>
<!-- Generator: Adobe Illustrator 19.0.0, SVG Export Plug-In . SVG Version: 6.00 Build 0)  -->
<svg version="1.1" id="Layer_1" xmlns="http://www.w3.org/2000/svg" xmlns:xlink="http://www.w3.org/1999/xlink" x="0px" y="0px"
	 viewBox="0 0 512 512" style="enable-background:new 0 0 512 512;" xml:space="preserve">
<path style="fill:#D9DCDF;" d="M469.333,179.2H42.667V59.733c0-4.713,3.821-8.533,8.533-8.533h409.6
	c4.713,0,8.533,3.821,8.533,8.533V179.2z"/>
<rect x="42.667" y="119.467" style="fill:#C6CACF;" width="426.667" height="51.2"/>
<path style="fill:#AAB0B7;" d="M145.067,136.533V102.4c0-9.426-7.641-17.067-17.067-17.067H17.067C7.641,85.333,0,92.974,0,102.4
	v341.333c0,9.426,7.641,17.067,17.067,17.067h477.867c9.426,0,17.067-7.641,17.067-17.067V153.6c0-9.426-7.641-17.067-17.067-17.067
	H145.067z"/>
<path style="fill:#979EA7;" d="M34.133,435.2c-4.713,0-8.533-3.821-8.533-8.533V85.333h-8.533C7.641,85.333,0,92.975,0,102.4
	v341.333c0,9.425,7.641,17.067,17.067,17.067h477.867c9.426,0,17.067-7.642,17.067-17.067V435.2H34.133z"/>
<path style="fill:#FFC44F;" d="M366.933,409.6H170.667c-4.713,0-8.533-3.821-8.533-8.533V204.8c0-4.713,3.821-8.533,8.533-8.533
	h196.267c9.426,0,17.067,7.641,17.067,17.067v179.2C384,401.96,376.359,409.6,366.933,409.6z"/>
<path style="fill:#F79F4D;" d="M170.667,196.267c-4.713,0-8.533,3.821-8.533,8.533v196.267c0,4.713,3.821,8.533,8.533,8.533h25.955
	V196.267H170.667z"/>
<g>
	<path style="fill:#BF722A;" d="M187.733,247.467h-51.2c-4.713,0-8.533-3.821-8.533-8.533c0-4.713,3.821-8.533,8.533-8.533h51.2
		c4.713,0,8.533,3.821,8.533,8.533C196.267,243.646,192.446,247.467,187.733,247.467z"/>
	<path style="fill:#BF722A;" d="M187.733,290.133h-51.2c-4.713,0-8.533-3.821-8.533-8.533c0-4.713,3.821-8.533,8.533-8.533h51.2
		c4.713,0,8.533,3.821,8.533,8.533C196.267,286.313,192.446,290.133,187.733,290.133z"/>
	<path style="fill:#BF722A;" d="M187.733,332.8h-51.2c-4.713,0-8.533-3.821-8.533-8.533c0-4.713,3.821-8.533,8.533-8.533h51.2
		c4.713,0,8.533,3.821,8.533,8.533C196.267,328.979,192.446,332.8,187.733,332.8z"/>
	<path style="fill:#BF722A;" d="M187.733,375.467h-51.2c-4.713,0-8.533-3.821-8.533-8.533s3.821-8.533,8.533-8.533h51.2
		c4.713,0,8.533,3.821,8.533,8.533S192.446,375.467,187.733,375.467z"/>
</g>
<circle style="fill:#ECEDEF;" cx="273.067" cy="273.067" r="42.667"/>
<path style="fill:#D9DCDF;" d="M290.133,307.2c-23.564,0-42.667-19.103-42.667-42.667c0-13.257,6.046-25.102,15.532-32.927
	c-18.704,4.527-32.598,21.366-32.598,41.46c0,23.564,19.103,42.667,42.667,42.667c10.307,0,19.761-3.655,27.135-9.74
	C296.973,306.775,293.603,307.2,290.133,307.2z"/>
<path style="fill:#ECEDEF;" d="M238.933,324.267H307.2c9.426,0,17.067,7.641,17.067,17.067V409.6h-102.4v-68.267
	C221.867,331.907,229.507,324.267,238.933,324.267z"/>
<path style="fill:#D9DCDF;" d="M256,324.267h-17.067c-9.426,0-17.067,7.642-17.067,17.067V409.6h17.067v-68.267
	C238.933,331.908,246.574,324.267,256,324.267z"/>
<g>
</g>
<g>
</g>
<g>
</g>
<g>
</g>
<g>
</g>
<g>
</g>
<g>
</g>
<g>
</g>
<g>
</g>
<g>
</g>
<g>
</g>
<g>
</g>
<g>
</g>
<g>
</g>
<g>
</g>
</svg>
