<?xml version="1.0" encoding="iso-8859-1"?>
<!-- Generator: Adobe Illustrator 19.0.0, SVG Export Plug-In . SVG Version: 6.00 Build 0)  -->
<svg version="1.1" id="Layer_1" xmlns="http://www.w3.org/2000/svg" xmlns:xlink="http://www.w3.org/1999/xlink" x="0px" y="0px"
	 viewBox="0 0 512 512" style="enable-background:new 0 0 512 512;" xml:space="preserve">
<path style="fill:#ECEDEF;" d="M100.641,0c-14.139,0-25.6,11.461-25.6,25.6v460.8c0,14.139,11.461,25.6,25.6,25.6h375.467
	c14.139,0,25.6-11.461,25.6-25.6V85.333L416.375,0H100.641z"/>
<path style="fill:#D9DCDF;" d="M441.975,85.333h59.733L416.375,0v59.733C416.375,73.872,427.836,85.333,441.975,85.333z"/>
<path style="fill:#C6CACF;" d="M399.308,42.667H75.041v153.6h324.267c4.713,0,8.533-3.821,8.533-8.533V51.2
	C407.841,46.487,404.02,42.667,399.308,42.667z"/>
<path style="fill:#529E44;" d="M382.241,179.2H18.843c-7.602,0-11.41-9.191-6.034-14.567L75.041,102.4L12.809,40.167
	C7.433,34.791,11.241,25.6,18.843,25.6h363.398c4.713,0,8.533,3.821,8.533,8.533v136.533
	C390.775,175.379,386.954,179.2,382.241,179.2z"/>
<g>
	<path style="fill:#FFFFFF;" d="M188.673,77.238c-4.473-1.49-9.303,0.926-10.795,5.397l-10.553,31.655l-7.853-15.707
		c-3.084-6.167-12.18-6.169-15.265,0l-7.853,15.707l-10.553-31.655c-1.49-4.47-6.319-6.89-10.795-5.397
		c-4.47,1.49-6.886,6.323-5.397,10.794l17.067,51.2c2.353,7.057,12.399,7.778,15.728,1.118l9.435-18.868l9.435,18.868
		c3.33,6.66,13.376,5.938,15.728-1.118l17.067-51.2C195.56,83.561,193.145,78.729,188.673,77.238z"/>
	<path style="fill:#FFFFFF;" d="M265.473,77.238c-3.488-1.162-7.322,0.036-9.526,2.976l-18.773,25.03L218.4,80.214
		c-2.245-2.994-6.308-4.182-9.813-2.874c-3.299,1.232-5.547,4.473-5.547,7.994v51.2c0,4.713,3.821,8.533,8.533,8.533
		c4.713,0,8.533-3.821,8.533-8.533v-25.6l10.24,13.653c3.359,4.477,10.294,4.477,13.654,0l10.24-13.653v25.6
		c0,4.713,3.821,8.533,8.533,8.533c4.713,0,8.533-3.821,8.533-8.533V85.333C271.308,81.661,268.958,78.4,265.473,77.238z"/>
	<path style="fill:#FFFFFF;" d="M330.604,133.835l-17.067-51.2c-1.149-3.445-4.464-5.835-8.096-5.835
		c-3.632,0-6.947,2.389-8.096,5.835l-17.067,51.2c-1.489,4.47,0.926,9.303,5.397,10.794c4.473,1.489,9.303-0.926,10.795-5.397
		l8.971-26.913l8.971,26.913c1.545,4.629,6.836,7.05,11.355,5.188C329.856,142.736,332.001,138.029,330.604,133.835z"/>
</g>
<g>
	<path style="fill:#F79F4D;" d="M322.508,372.361c-7.461,0-11.289-9.313-6.034-14.567c4.835-4.835,7.499-11.265,7.499-18.102
		s-2.663-13.267-7.499-18.102c-3.332-3.332-3.332-8.735,0-12.067c3.333-3.332,8.735-3.332,12.068,0
		c8.059,8.059,12.497,18.773,12.497,30.17s-4.438,22.111-12.497,30.17C326.876,371.527,324.692,372.361,322.508,372.361z"/>
	<path style="fill:#F79F4D;" d="M346.643,396.497c-7.461,0-11.289-9.314-6.033-14.568c11.282-11.282,17.495-26.283,17.495-42.238
		c0-15.955-6.213-30.956-17.497-42.238c-3.332-3.332-3.332-8.735,0-12.067c3.333-3.332,8.735-3.332,12.068,0
		c14.507,14.507,22.495,33.792,22.495,54.306s-7.988,39.801-22.496,54.306C351.011,395.664,348.827,396.497,346.643,396.497z"/>
	<path style="fill:#F79F4D;" d="M376.814,426.667c-7.461,0-11.289-9.313-6.034-14.567c19.342-19.341,29.993-45.056,29.993-72.407
		s-10.651-53.067-29.993-72.407c-3.332-3.332-3.332-8.735,0-12.067c3.333-3.332,8.735-3.332,12.068,0
		c22.563,22.564,34.991,52.565,34.991,84.476s-12.427,61.911-34.991,84.476C381.182,425.834,378.999,426.667,376.814,426.667z"/>
</g>
<g>
	<path style="fill:#FFC44F;" d="M177.441,384h34.133v-85.333h-34.133c-9.426,0-17.067,7.641-17.067,17.067v51.2
		C160.375,376.359,168.016,384,177.441,384z"/>
	<path style="fill:#FFC44F;" d="M292.327,435.388L211.575,384v-85.333l80.752-51.388c5.681-3.615,13.115,0.466,13.115,7.199v173.71
		C305.441,434.922,298.008,439.003,292.327,435.388z"/>
</g>
<rect x="194.507" y="298.667" style="fill:#F79F4D;" width="17.067" height="85.333"/>
<g>
</g>
<g>
</g>
<g>
</g>
<g>
</g>
<g>
</g>
<g>
</g>
<g>
</g>
<g>
</g>
<g>
</g>
<g>
</g>
<g>
</g>
<g>
</g>
<g>
</g>
<g>
</g>
<g>
</g>
</svg>
